Preview_RobotoExtremo-wght_100.00_wdth_100.00_opsz_18.00_GRAD_0.00_XTRA_468.00_XOPQ_96.00_YOPQ_79.00.ufo
<glyph name="exclam" format="2">
  <advance width="512"/>
  <unicode hex="0021"/>
  <outline>
    <contour>
      <point x="191.0289230769231" y="62.03076923076923" type="qcurve" smooth="yes"/>
      <point x="191.0289230769231" y="96.87076923076923"/>
      <point x="225.14523076923078" y="145.66153846153844"/>
      <point x="256.2923076923077" y="145.66153846153844" type="qcurve" smooth="yes"/>
      <point x="287.60615384615386" y="145.66153846153844"/>
      <point x="320.58646153846155" y="96.87076923076923"/>
      <point x="320.58646153846155" y="62.03076923076923" type="qcurve" smooth="yes"/>
      <point x="320.58646153846155" y="27.16"/>
      <point x="287.5753846153846" y="-21.630769230769232"/>
      <point x="256.26153846153846" y="-21.630769230769232" type="qcurve" smooth="yes"/>
      <point x="225.08369230769227" y="-21.630769230769232"/>
      <point x="191.0289230769231" y="27.16"/>
    </contour>
    <contour>
      <point x="222.9796923076923" y="387.81107692307694" type="line"/>
      <point x="216.58523076923078" y="1456.0" type="line"/>
      <point x="295.9993846153846" y="1456.0" type="line"/>
      <point x="288.7716923076923" y="387.81107692307694" type="line"/>
    </contour>
  </outline>
</glyph>
<glyph name="quotedbl" format="2">
  <advance width="594"/>
  <unicode hex="0022"/>
  <outline>
    <contour>
      <point x="113.82123076923077" y="1106.6381538461537" type="line"/>
      <point x="106.22030769230768" y="1361.0676923076926" type="line"/>
      <point x="106.22030769230768" y="1456.0" type="line"/>
      <point x="197.00061538461534" y="1456.0" type="line"/>
      <point x="197.00061538461534" y="1361.0676923076926" type="line"/>
      <point x="189.39969230769233" y="1106.6381538461537" type="line"/>
    </contour>
    <contour>
      <point x="404.4655384615385" y="1106.6381538461537" type="line"/>
      <point x="396.8646153846154" y="1361.0676923076926" type="line"/>
      <point x="396.8646153846154" y="1456.0" type="line"/>
      <point x="487.7809230769231" y="1456.0" type="line"/>
      <point x="487.7809230769231" y="1361.0676923076926" type="line"/>
      <point x="480.18" y="1106.6381538461537" type="line"/>
    </contour>
  </outline>
</glyph>
<glyph name="numbersign" format="2">
  <advance width="1436"/>
  <unicode hex="0023"/>
  <outline>
    <contour>
      <point x="211.78830769230768" y="-20.0" type="line"/>
      <point x="691.6123076923077" y="1476.5439999999999" type="line"/>
      <point x="761.5292307692307" y="1476.5439999999999" type="line"/>
      <point x="281.70523076923075" y="-20.0" type="line"/>
    </contour>
    <contour>
      <point x="674.6369230769232" y="-20.0" type="line"/>
      <point x="1154.6467692307695" y="1476.5439999999999" type="line"/>
      <point x="1224.5329230769232" y="1476.5439999999999" type="line"/>
      <point x="744.5846153846153" y="-20.0" type="line"/>
    </contour>
    <contour>
      <point x="49.4523076923077" y="444.6178461538462" type="line"/>
      <point x="49.4523076923077" y="517.9076923076923" type="line"/>
      <point x="1308.4707692307693" y="517.9076923076923" type="line"/>
      <point x="1308.4707692307693" y="444.6178461538462" type="line"/>
    </contour>
    <contour>
      <point x="128.85046153846156" y="938.5747692307692" type="line"/>
      <point x="128.85046153846156" y="1011.8646153846154" type="line"/>
      <point x="1386.868923076923" y="1011.8646153846154" type="line"/>
      <point x="1386.868923076923" y="938.5747692307692" type="line"/>
    </contour>
  </outline>
</glyph>
<glyph name="dollar" format="2">
  <advance width="985"/>
  <unicode hex="0024"/>
  <outline>
    <contour>
      <point x="75.0756923076923" y="411.1846153846154" type="qcurve" smooth="yes"/>
      <point x="75.0756923076923" y="423.18461538461537" type="line"/>
      <point x="150.32246153846157" y="423.18461538461537" type="line"/>
      <point x="150.32246153846157" y="411.1846153846154" type="line" smooth="yes"/>
      <point x="148.82646153846156" y="248.29230769230767"/>
      <point x="335.2030769230769" y="75.96676923076923"/>
      <point x="502.04615384615386" y="75.96676923076923" type="qcurve" smooth="yes"/>
      <point x="668.4338461538463" y="75.96676923076923"/>
      <point x="847.0246153846155" y="247.46153846153848"/>
      <point x="846.0553846153847" y="362.9384615384615" type="qcurve" smooth="yes"/>
      <point x="845.0861538461539" y="489.15446153846153"/>
      <point x="701.0572307692308" y="651.9341538461538"/>
      <point x="496.68923076923073" y="706.5784615384616" type="qcurve" smooth="yes"/>
      <point x="283.5230769230769" y="763.2369230769232"/>
      <point x="103.00553846153846" y="944.8615384615384"/>
      <point x="103.00553846153846" y="1096.6153846153845" type="qcurve" smooth="yes"/>
      <point x="103.00553846153846" y="1254.5538461538463"/>
      <point x="305.03076923076924" y="1456.0"/>
      <point x="492.04615384615386" y="1456.0" type="qcurve" smooth="yes"/>
      <point x="676.676923076923" y="1456.0"/>
      <point x="892.6227692307692" y="1223.9692307692308"/>
      <point x="892.6227692307692" y="1050.8153846153846" type="qcurve" smooth="yes"/>
      <point x="892.6227692307692" y="1038.8153846153846" type="line"/>
      <point x="815.4547692307693" y="1038.8153846153846" type="line"/>
      <point x="815.4547692307693" y="1050.8153846153846" type="line" smooth="yes"/>
      <point x="815.4547692307693" y="1196.9144615384614"/>
      <point x="650.2313846153846" y="1378.8092307692307"/>
      <point x="492.04615384615386" y="1378.8092307692307" type="qcurve" smooth="yes"/>
      <point x="332.1907692307692" y="1378.8092307692307"/>
      <point x="180.83630769230768" y="1229.2098461538462"/>
      <point x="180.83630769230768" y="1096.7076923076922" type="qcurve" smooth="yes"/>
      <point x="180.83630769230768" y="984.6732307692308"/>
      <point x="323.8356923076923" y="836.8904615384615"/>
      <point x="541.4123076923076" y="779.1415384615384" type="qcurve" smooth="yes"/>
      <point x="731.0892307692309" y="728.5181538461537"/>
      <point x="920.468923076923" y="543.5846153846154"/>
      <point x="920.468923076923" y="382.4153846153846" type="qcurve" smooth="yes"/>
      <point x="920.468923076923" y="214.56923076923078"/>
      <point x="697.4307692307693" y="0.0"/>
      <point x="502.04615384615386" y="0.0" type="qcurve" smooth="yes"/>
      <point x="306.7846153846154" y="0.0"/>
      <point x="75.0756923076923" y="217.1846153846154"/>
    </contour>
    <contour>
      <point x="463.75076923076927" y="-150.0" type="line"/>
      <point x="463.75076923076927" y="728.7076923076924" type="line"/>
      <point x="530.3415384615384" y="728.7076923076924" type="line"/>
      <point x="530.3415384615384" y="50.0" type="line"/>
      <point x="532.28" y="40.0" type="line"/>
      <point x="532.28" y="-150.0" type="line"/>
    </contour>
    <contour>
      <point x="466.65846153846155" y="728.7076923076924" type="line"/>
      <point x="466.65846153846155" y="1405.6923076923078" type="line"/>
      <point x="463.7507692307692" y="1415.6923076923078" type="line"/>
      <point x="463.7507692307692" y="1606.0" type="line"/>
      <point x="532.28" y="1606.0" type="line"/>
      <point x="532.28" y="728.7076923076924" type="line"/>
    </contour>
  </outline>
</glyph>
<glyph name="ampersand" format="2">
  <advance width="1113"/>
  <unicode hex="0026"/>
  <outline>
    <contour>
      <point x="79.6923076923077" y="379.75384615384615" type="qcurve" smooth="yes"/>
      <point x="79.6923076923077" y="523.3852307692308"/>
      <point x="245.21815384615383" y="729.3101538461539"/>
      <point x="396.5824615384616" y="826.4363076923077" type="qcurve" smooth="yes"/>
      <point x="530.7009230769231" y="914.4467692307693" type="line" smooth="yes"/>
      <point x="607.5433846153845" y="964.7556923076922"/>
      <point x="690.8553846153847" y="1093.4455384615383"/>
      <point x="690.8553846153847" y="1178.176" type="qcurve" smooth="yes"/>
      <point x="690.8553846153847" y="1273.0627692307692"/>
      <point x="590.5107692307691" y="1413.5446153846153"/>
      <point x="497.4123076923077" y="1413.5446153846153" type="qcurve" smooth="yes"/>
      <point x="403.09846153846144" y="1413.5446153846153"/>
      <point x="291.6744615384616" y="1263.001230769231"/>
      <point x="291.6744615384616" y="1159.7846153846153" type="qcurve" smooth="yes"/>
      <point x="291.6744615384616" y="1082.9064615384614"/>
      <point x="358.29876923076927" y="936.3033846153846"/>
      <point x="455.9744615384616" y="810.8252307692309" type="qcurve" smooth="yes"/>
      <point x="1088.7495384615384" y="0.0" type="line"/>
      <point x="989.8356923076923" y="0.0" type="line"/>
      <point x="392.608" y="771.5064615384616" type="line" smooth="yes"/>
      <point x="286.33815384615383" y="909.0135384615384"/>
      <point x="214.8344615384615" y="1067.4375384615385"/>
      <point x="214.8344615384615" y="1159.7846153846153" type="qcurve" smooth="yes"/>
      <point x="214.8344615384615" y="1301.8012307692306"/>
      <point x="374.8443076923076" y="1486.0"/>
      <point x="497.4123076923077" y="1486.0" type="qcurve" smooth="yes"/>
      <point x="619.1803076923077" y="1486.0"/>
      <point x="768.1052307692307" y="1312.8486153846156"/>
      <point x="768.1052307692307" y="1180.6473846153847" type="qcurve" smooth="yes"/>
      <point x="768.1052307692307" y="1075.139076923077"/>
      <point x="663.7092307692308" y="916.6160000000001"/>
      <point x="578.0658461538461" y="858.6787692307691" type="qcurve" smooth="yes"/>
      <point x="440.7307692307692" y="768.1581538461538" type="line" smooth="yes"/>
      <point x="295.6987692307692" y="673.0861538461538"/>
      <point x="157.34646153846154" y="493.92861538461534"/>
      <point x="157.34646153846154" y="379.81538461538463" type="qcurve" smooth="yes"/>
      <point x="157.34646153846154" y="239.06276923076925"/>
      <point x="328.24861538461533" y="52.45538461538461"/>
      <point x="470.764923076923" y="52.45538461538461" type="qcurve" smooth="yes"/>
      <point x="665.776" y="52.45538461538461"/>
      <point x="945.2652307692308" y="388.6627692307693"/>
      <point x="945.2652307692308" y="674.0" type="qcurve"/>
      <point x="1020.5753846153845" y="674.0" type="line"/>
      <point x="1020.5753846153845" y="379.32307692307694"/>
      <point x="705.1224615384615" y="-20.0"/>
      <point x="470.764923076923" y="-20.0" type="qcurve" smooth="yes"/>
      <point x="287.01846153846157" y="-20.0"/>
      <point x="79.6923076923077" y="212.56246153846152"/>
    </contour>
  </outline>
</glyph>
<glyph name="quotesingle" format="2">
  <advance width="307"/>
  <unicode hex="0027"/>
  <outline>
    <contour>
      <point x="113.54338461538461" y="1106.366769230769" type="line"/>
      <point x="110.55692307692307" y="1361.339076923077" type="line"/>
      <point x="110.55692307692307" y="1456.0" type="line"/>
      <point x="197.672" y="1456.0" type="line"/>
      <point x="197.672" y="1361.339076923077" type="line"/>
      <point x="194.68553846153847" y="1106.366769230769" type="line"/>
    </contour>
  </outline>
</glyph>
<glyph name="parenleft" format="2">
  <advance width="593"/>
  <unicode hex="0028"/>
  <outline>
    <contour>
      <point x="578.9538461538461" y="-436.0" type="line"/>
      <point x="399.29784615384614" y="-357.56246153846155"/>
      <point x="123.26153846153846" y="117.61846153846155"/>
      <point x="123.26153846153846" y="515.0" type="qcurve" smooth="yes"/>
      <point x="123.26153846153846" y="525.0" type="line" smooth="yes"/>
      <point x="123.26153846153846" y="920.2233846153846"/>
      <point x="397.39384615384614" y="1398.6504615384615"/>
      <point x="578.9538461538461" y="1476.0" type="qcurve"/>
      <point x="578.9538461538461" y="1392.0572307692307" type="line"/>
      <point x="437.0523076923077" y="1319.0221538461537"/>
      <point x="203.72492307692306" y="912.9366153846154"/>
      <point x="203.72492307692306" y="532.0" type="qcurve" smooth="yes"/>
      <point x="203.72492307692306" y="508.0" type="line" smooth="yes"/>
      <point x="203.72492307692306" y="125.31323076923078"/>
      <point x="438.60984615384615" y="-275.81600000000003"/>
      <point x="578.9538461538461" y="-350.1187692307692" type="qcurve"/>
    </contour>
  </outline>
</glyph>
<glyph name="parenright" format="2">
  <advance width="593"/>
  <unicode hex="0029"/>
  <outline>
    <contour>
      <point x="14.184615384615384" y="-436.0" type="qcurve"/>
      <point x="14.184615384615384" y="-347.2110769230769" type="line"/>
      <point x="155.49784615384615" y="-272.9083076923077"/>
      <point x="389.80123076923076" y="125.31323076923078"/>
      <point x="389.80123076923076" y="508.0" type="qcurve" smooth="yes"/>
      <point x="389.80123076923076" y="532.0" type="line" smooth="yes"/>
      <point x="389.80123076923076" y="912.9366153846154"/>
      <point x="155.5593846153846" y="1311.8467692307693"/>
      <point x="14.184615384615384" y="1386.2418461538462" type="qcurve"/>
      <point x="14.184615384615384" y="1476.0" type="line"/>
      <point x="194.03446153846153" y="1397.136"/>
      <point x="470.26461538461535" y="920.2233846153846"/>
      <point x="470.26461538461535" y="525.0" type="qcurve" smooth="yes"/>
      <point x="470.26461538461535" y="515.0" type="line" smooth="yes"/>
      <point x="470.26461538461535" y="117.61846153846155"/>
      <point x="194.03446153846153" y="-357.13599999999997"/>
    </contour>
  </outline>
</glyph>
<glyph name="asterisk" format="2">
  <advance width="1056"/>
  <unicode hex="002A"/>
  <outline>
    <contour>
      <point x="56.42953846153846" y="1100.670769230769" type="line"/>
      <point x="79.59507692307692" y="1178.396923076923" type="line"/>
      <point x="501.5067692307692" y="1028.7390769230767" type="line"/>
      <point x="490.38461538461536" y="1475.076923076923" type="line"/>
      <point x="566.0018461538461" y="1475.076923076923" type="line"/>
      <point x="554.7436923076922" y="1028.7390769230767" type="line"/>
      <point x="976.7606153846153" y="1178.396923076923" type="line"/>
      <point x="999.7593846153845" y="1100.670769230769" type="line"/>
      <point x="571.7169230769232" y="974.5581538461538" type="line"/>
      <point x="844.6187692307692" y="620.9956923076924" type="line"/>
      <point x="783.7806153846153" y="572.7243076923077" type="line"/>
      <point x="528.1932307692306" y="942.1753846153845" type="line"/>
      <point x="272.8827692307692" y="572.7550769230769" type="line"/>
      <point x="211.90861538461542" y="621.0264615384616" type="line"/>
      <point x="484.6695384615384" y="974.5581538461538" type="line"/>
    </contour>
  </outline>
</glyph>
<glyph name="plus" format="2">
  <advance width="1167"/>
  <unicode hex="002B"/>
  <outline>
    <contour>
      <point x="115.7796923076923" y="636.4553846153847" type="line"/>
      <point x="115.7796923076923" y="711.8166153846154" type="line"/>
      <point x="1051.5126153846152" y="711.8166153846154" type="line"/>
      <point x="1051.5126153846152" y="636.4553846153847" type="line"/>
    </contour>
    <contour>
      <point x="545.2550769230769" y="183.80800000000002" type="line"/>
      <point x="545.2550769230769" y="1164.1920000000002" type="line"/>
      <point x="622.0372307692309" y="1164.1920000000002" type="line"/>
      <point x="622.0372307692309" y="183.80800000000002" type="line"/>
    </contour>
  </outline>
</glyph>
<glyph name="comma" format="2">
  <advance width="498"/>
  <unicode hex="002C"/>
  <outline>
    <contour>
      <point x="158.1956923076923" y="-152.40923076923073" type="line"/>
      <point x="185.63876923076924" y="-107.98523076923075"/>
      <point x="213.73846153846156" y="-13.185846153846152"/>
      <point x="213.55384615384614" y="50.385230769230766" type="qcurve" smooth="yes"/>
      <point x="213.4923076923077" y="152.6166153846154" type="line"/>
      <point x="304.3649230769231" y="152.6473846153846" type="line"/>
      <point x="304.4264615384615" y="50.44676923076923" type="line" smooth="yes"/>
      <point x="304.61107692307695" y="-26.815384615384612"/>
      <point x="258.82584615384616" y="-143.5243076923077"/>
      <point x="217.39415384615387" y="-190.28923076923076" type="qcurve"/>
    </contour>
  </outline>
</glyph>
<glyph name="hyphen" format="2">
  <advance width="592"/>
  <unicode hex="002D"/>
  <outline>
    <contour>
      <point x="40.0" y="600.3218461538463" type="line"/>
      <point x="40.0" y="677.5458461538461" type="line"/>
      <point x="551.601846153846" y="677.5458461538461" type="line"/>
      <point x="551.601846153846" y="600.3218461538463" type="line"/>
    </contour>
  </outline>
</glyph>
<glyph name="period" format="2">
  <advance width="465"/>
  <unicode hex="002E"/>
  <outline>
    <contour>
      <point x="165.85476923076922" y="63.56123076923077" type="qcurve" smooth="yes"/>
      <point x="165.85476923076922" y="98.82707692307693"/>
      <point x="200.22276923076925" y="148.58646153846155"/>
      <point x="232.22276923076922" y="148.58646153846155" type="qcurve" smooth="yes"/>
      <point x="264.11753846153846" y="148.58646153846155"/>
      <point x="298.31876923076925" y="98.82707692307693"/>
      <point x="298.31876923076925" y="63.56123076923077" type="qcurve" smooth="yes"/>
      <point x="298.31876923076925" y="28.12861538461538"/>
      <point x="264.0867692307692" y="-21.630769230769232"/>
      <point x="232.19199999999998" y="-21.630769230769232" type="qcurve" smooth="yes"/>
      <point x="200.16123076923077" y="-21.630769230769232"/>
      <point x="165.85476923076922" y="28.12861538461538"/>
    </contour>
  </outline>
</glyph>
<glyph name="slash" format="2">
  <advance width="523"/>
  <unicode hex="002F"/>
  <outline>
    <contour>
      <point x="-95.92" y="-125.0" type="line"/>
      <point x="539.6812307692309" y="1456.0" type="line"/>
      <point x="618.4258461538461" y="1456.0" type="line"/>
      <point x="-17.36123076923077" y="-125.0" type="line"/>
    </contour>
  </outline>
</glyph>
<glyph name="zero" format="2">
  <advance width="1148"/>
  <unicode hex="0030"/>
  <outline>
    <contour>
      <point x="156.4" y="459.6" type="qcurve" smooth="yes"/>
      <point x="156.4" y="995.1999999999999" type="line" smooth="yes"/>
      <point x="156.4" y="1226.8"/>
      <point x="378.4" y="1485.6"/>
      <point x="573.2" y="1485.6" type="qcurve" smooth="yes"/>
      <point x="768.0" y="1485.6"/>
      <point x="990.0" y="1230.8"/>
      <point x="990.0" y="995.1999999999999" type="qcurve" smooth="yes"/>
      <point x="990.0" y="459.6" type="line" smooth="yes"/>
      <point x="990.0" y="228.0"/>
      <point x="768.0" y="-29.6"/>
      <point x="573.2" y="-29.6" type="qcurve" smooth="yes"/>
      <point x="378.4" y="-29.6"/>
      <point x="156.4" y="228.0"/>
    </contour>
    <contour>
      <point x="236.6" y="452.79999999999995" type="line" smooth="yes"/>
      <point x="236.6" y="264.4"/>
      <point x="411.40000000000003" y="45.8"/>
      <point x="573.2" y="45.8" type="qcurve" smooth="yes"/>
      <point x="735.4000000000001" y="45.8"/>
      <point x="909.8" y="264.4"/>
      <point x="909.8" y="452.79999999999995" type="qcurve" smooth="yes"/>
      <point x="909.8" y="1000.1999999999999" type="line" smooth="yes"/>
      <point x="909.8" y="1187.6"/>
      <point x="736.0" y="1410.2"/>
      <point x="573.2" y="1410.2" type="qcurve" smooth="yes"/>
      <point x="410.80000000000007" y="1410.2"/>
      <point x="236.6" y="1187.1999999999998"/>
      <point x="236.6" y="1000.1999999999999" type="qcurve" smooth="yes"/>
    </contour>
  </outline>
</glyph>
<glyph name="one" format="2">
  <advance width="1148"/>
  <unicode hex="0031"/>
  <outline>
    <contour>
      <point x="597.4" y="0.0" type="line"/>
      <point x="597.4" y="1379.4" type="line"/>
      <point x="202.60000000000002" y="1224.8000000000002" type="line"/>
      <point x="202.60000000000002" y="1309.0" type="line"/>
      <point x="646.0" y="1476.0" type="line"/>
      <point x="676.6" y="1476.0" type="line"/>
      <point x="676.6" y="0.0" type="line"/>
    </contour>
  </outline>
</glyph>
<glyph name="two" format="2">
  <advance width="1148"/>
  <unicode hex="0032"/>
  <outline>
    <contour>
      <point x="147.20000000000002" y="0.0" type="line"/>
      <point x="147.20000000000002" y="69.8" type="line"/>
      <point x="686.4" y="652.6000000000001" type="line" smooth="yes"/>
      <point x="788.0" y="762.8000000000001"/>
      <point x="909.4000000000001" y="972.6"/>
      <point x="909.4000000000001" y="1103.0" type="qcurve" smooth="yes"/>
      <point x="909.4000000000001" y="1224.8"/>
      <point x="746.0000000000001" y="1410.8"/>
      <point x="592.0" y="1410.2" type="qcurve" smooth="yes"/>
      <point x="436.2" y="1409.6"/>
      <point x="229.60000000000002" y="1229.8000000000002"/>
      <point x="229.60000000000002" y="1052.3999999999999" type="qcurve" smooth="yes"/>
      <point x="229.60000000000002" y="1031.2" type="line"/>
      <point x="151.4" y="1031.2" type="line"/>
      <point x="151.4" y="1051.8" type="line" smooth="yes"/>
      <point x="151.4" y="1250.2"/>
      <point x="401.0" y="1485.6"/>
      <point x="592.0" y="1485.6" type="qcurve" smooth="yes"/>
      <point x="780.5999999999999" y="1485.6"/>
      <point x="989.8" y="1256.4"/>
      <point x="989.8" y="1108.6" type="qcurve" smooth="yes"/>
      <point x="989.8" y="953.6"/>
      <point x="854.8000000000001" y="722.1999999999999"/>
      <point x="739.8" y="599.4" type="qcurve" smooth="yes"/>
      <point x="248.39999999999998" y="73.6" type="line"/>
      <point x="1036.6" y="73.6" type="line"/>
      <point x="1036.6" y="0.0" type="line"/>
    </contour>
  </outline>
</glyph>
<glyph name="three" format="2">
  <advance width="1148"/>
  <unicode hex="0033"/>
  <outline>
    <contour>
      <point x="129.20000000000002" y="378.8" type="qcurve" smooth="yes"/>
      <point x="129.20000000000002" y="390.0" type="line"/>
      <point x="207.2" y="390.0" type="line"/>
      <point x="207.2" y="380.0" type="line" smooth="yes"/>
      <point x="207.2" y="218.79999999999998"/>
      <point x="413.59999999999997" y="45.0"/>
      <point x="571.0" y="45.0" type="qcurve" smooth="yes"/>
      <point x="723.6" y="45.0"/>
      <point x="931.2" y="221.39999999999998"/>
      <point x="931.2" y="385.0" type="qcurve" smooth="yes"/>
      <point x="931.2" y="556.8"/>
      <point x="695.7840000000001" y="719.9999999999999"/>
      <point x="537.36" y="721.1999999999999" type="qcurve" smooth="yes"/>
      <point x="413.176" y="720.8" type="line"/>
      <point x="413.176" y="798.4" type="line"/>
      <point x="526.672" y="798.4" type="line" smooth="yes"/>
      <point x="685.528" y="798.4"/>
      <point x="877.2" y="964.2"/>
      <point x="877.2" y="1099.3999999999999" type="qcurve" smooth="yes"/>
      <point x="877.2" y="1248.8"/>
      <point x="706.0" y="1410.4"/>
      <point x="570.6239999999999" y="1410.464" type="qcurve" smooth="yes"/>
      <point x="436.59999999999997" y="1410.2"/>
      <point x="246.6" y="1241.3999999999999"/>
      <point x="246.6" y="1100.0" type="qcurve" smooth="yes"/>
      <point x="246.6" y="1084.0" type="line"/>
      <point x="170.6" y="1084.0" type="line"/>
      <point x="170.6" y="1100.0" type="line" smooth="yes"/>
      <point x="170.6" y="1268.1999999999998"/>
      <point x="404.0" y="1485.6"/>
      <point x="572.6239999999999" y="1485.6" type="qcurve" smooth="yes"/>
      <point x="742.6" y="1485.6"/>
      <point x="956.8000000000001" y="1270.8"/>
      <point x="956.8000000000001" y="1100.4" type="qcurve" smooth="yes"/>
      <point x="956.8000000000001" y="987.4"/>
      <point x="828.8000000000001" y="808.6"/>
      <point x="696.4000000000001" y="765.4" type="qcurve"/>
      <point x="696.4000000000001" y="761.4" type="line"/>
      <point x="835.0" y="735.1999999999999"/>
      <point x="1012.0" y="543.6"/>
      <point x="1012.0" y="383.20000000000005" type="qcurve" smooth="yes"/>
      <point x="1012.0" y="203.8"/>
      <point x="763.6" y="-29.6"/>
      <point x="572.5999999999999" y="-30.200000000000003" type="qcurve" smooth="yes"/>
      <point x="383.6" y="-30.8"/>
      <point x="129.20000000000002" y="184.8"/>
    </contour>
  </outline>
</glyph>
<glyph name="four" format="2">
  <advance width="1148"/>
  <unicode hex="0034"/>
  <outline>
    <contour>
      <point x="769.0" y="0.0" type="line"/>
      <point x="769.0" y="391.8" type="line"/>
      <point x="769.0" y="411.20000000000005" type="line"/>
      <point x="769.0" y="1316.6" type="line"/>
      <point x="761.8000000000001" y="1316.6" type="line"/>
      <point x="161.8" y="438.0" type="line"/>
      <point x="788.4" y="438.0" type="line"/>
      <point x="817.6" y="438.0" type="line"/>
      <point x="1056.3999999999999" y="438.0" type="line"/>
      <point x="1056.3999999999999" y="363.8" type="line"/>
      <point x="75.0" y="363.8" type="line"/>
      <point x="75.0" y="442.0" type="line"/>
      <point x="770.0" y="1456.0" type="line"/>
      <point x="845.2" y="1456.0" type="line"/>
      <point x="845.2" y="0.0" type="line"/>
    </contour>
  </outline>
</glyph>
<glyph name="five" format="2">
  <advance width="1148"/>
  <unicode hex="0035"/>
  <outline>
    <contour>
      <point x="133.2" y="360.4" type="qcurve" smooth="yes"/>
      <point x="133.2" y="376.59999999999997" type="line"/>
      <point x="210.2" y="376.59999999999997" type="line"/>
      <point x="210.2" y="362.2" type="line" smooth="yes"/>
      <point x="210.2" y="213.4"/>
      <point x="408.0" y="46.2"/>
      <point x="569.8" y="46.2" type="qcurve" smooth="yes"/>
      <point x="732.2" y="46.2"/>
      <point x="925.1999999999999" y="266.0"/>
      <point x="925.1999999999999" y="465.0" type="qcurve" smooth="yes"/>
      <point x="925.1999999999999" y="646.6"/>
      <point x="731.8" y="840.4"/>
      <point x="571.0000000000001" y="840.4" type="qcurve" smooth="yes"/>
      <point x="481.6" y="841.0"/>
      <point x="299.8" y="748.4"/>
      <point x="251.6" y="685.2" type="qcurve"/>
      <point x="184.6" y="716.2" type="line"/>
      <point x="259.79999999999995" y="1456.0" type="line"/>
      <point x="936.8" y="1456.0" type="line"/>
      <point x="936.8" y="1379.6000000000001" type="line"/>
      <point x="324.79999999999995" y="1379.6000000000001" type="line"/>
      <point x="260.8" y="771.8000000000001" type="line"/>
      <point x="304.20000000000005" y="828.6"/>
      <point x="488.59999999999997" y="916.2"/>
      <point x="585.8" y="916.2" type="qcurve" smooth="yes"/>
      <point x="768.2" y="916.2"/>
      <point x="1004.8" y="675.6"/>
      <point x="1004.8" y="465.0" type="qcurve" smooth="yes"/>
      <point x="1004.8" y="236.2"/>
      <point x="767.2" y="-29.6"/>
      <point x="569.8" y="-29.6" type="qcurve" smooth="yes"/>
      <point x="373.40000000000003" y="-29.6"/>
      <point x="133.2" y="183.6"/>
    </contour>
  </outline>
</glyph>
<glyph name="six" format="2">
  <advance width="1148"/>
  <unicode hex="0036"/>
  <outline>
    <contour>
      <point x="133.6" y="614.0" type="qcurve" smooth="yes"/>
      <point x="133.6" y="644.0" type="line" smooth="yes"/>
      <point x="133.6" y="1027.2"/>
      <point x="526.0" y="1485.6"/>
      <point x="840.0" y="1485.6" type="qcurve" smooth="yes"/>
      <point x="861.0" y="1485.6" type="line"/>
      <point x="861.0" y="1411.0" type="line"/>
      <point x="840.0" y="1411.0" type="line" smooth="yes"/>
      <point x="573.4" y="1411.0"/>
      <point x="211.2" y="1017.4"/>
      <point x="211.2" y="653.1999999999999" type="qcurve" smooth="yes"/>
      <point x="211.2" y="604.4" type="line" smooth="yes"/>
      <point x="211.2" y="300.40000000000003"/>
      <point x="445.2" y="44.6"/>
      <point x="618.1999999999999" y="44.6" type="qcurve" smooth="yes"/>
      <point x="782.8" y="44.6"/>
      <point x="969.1999999999999" y="265.0"/>
      <point x="969.1999999999999" y="463.59999999999997" type="qcurve" smooth="yes"/>
      <point x="969.1999999999999" y="648.4"/>
      <point x="780.8" y="851.1999999999999"/>
      <point x="622.0" y="851.1999999999999" type="qcurve" smooth="yes"/>
      <point x="465.0" y="851.1999999999999"/>
      <point x="206.8" y="626.4"/>
      <point x="206.8" y="464.00000000000006" type="qcurve"/>
      <point x="168.8" y="464.00000000000006" type="line"/>
      <point x="168.8" y="666.4"/>
      <point x="449.19999999999993" y="925.8000000000001"/>
      <point x="636.0000000000001" y="925.8000000000001" type="qcurve" smooth="yes"/>
      <point x="823.4000000000001" y="925.8000000000001"/>
      <point x="1048.3999999999999" y="671.1999999999999"/>
      <point x="1048.3999999999999" y="463.59999999999997" type="qcurve" smooth="yes"/>
      <point x="1048.3999999999999" y="242.39999999999998"/>
      <point x="814.2" y="-29.6"/>
      <point x="618.2" y="-29.6" type="qcurve" smooth="yes"/>
      <point x="410.00000000000006" y="-29.6"/>
      <point x="133.6" y="287.2"/>
    </contour>
  </outline>
</glyph>
<glyph name="seven" format="2">
  <advance width="1148"/>
  <unicode hex="0037"/>
  <outline>
    <contour>
      <point x="340.59999999999997" y="0.0" type="line"/>
      <point x="932.4" y="1380.2" type="line"/>
      <point x="106.4" y="1380.2" type="line"/>
      <point x="106.4" y="1456.0" type="line"/>
      <point x="1014.0" y="1456.0" type="line"/>
      <point x="1014.0" y="1391.6" type="line"/>
      <point x="425.6" y="0.0" type="line"/>
    </contour>
  </outline>
</glyph>
<glyph name="eight" format="2">
  <advance width="1148"/>
  <unicode hex="0038"/>
  <outline>
    <contour>
      <point x="130.59999999999997" y="378.2" type="qcurve" smooth="yes"/>
      <point x="130.59999999999997" y="518.2"/>
      <point x="298.8" y="709.0"/>
      <point x="423.4" y="747.6" type="qcurve"/>
      <point x="423.4" y="751.6" type="line"/>
      <point x="314.00000000000006" y="785.4000000000001"/>
      <point x="176.2" y="970.6"/>
      <point x="176.2" y="1094.8000000000002" type="qcurve" smooth="yes"/>
      <point x="176.2" y="1271.8000000000002"/>
      <point x="404.8" y="1485.6"/>
      <point x="573.6" y="1485.6" type="qcurve" smooth="yes"/>
      <point x="742.4" y="1485.6"/>
      <point x="971.8" y="1270.9999999999998"/>
      <point x="971.8" y="1094.8000000000002" type="qcurve" smooth="yes"/>
      <point x="971.8" y="970.5999999999999"/>
      <point x="832.4" y="784.0"/>
      <point x="723.0000000000001" y="751.6" type="qcurve"/>
      <point x="723.0000000000001" y="747.6" type="line"/>
      <point x="853.4000000000001" y="713.0"/>
      <point x="1017.4" y="518.8"/>
      <point x="1017.4" y="378.2" type="qcurve" smooth="yes"/>
      <point x="1017.4" y="184.0"/>
      <point x="764.8" y="-29.6"/>
      <point x="573.6" y="-29.6" type="qcurve" smooth="yes"/>
      <point x="382.4" y="-29.6"/>
      <point x="130.59999999999997" y="184.0"/>
    </contour>
    <contour>
      <point x="209.79999999999998" y="380.40000000000003" type="qcurve" smooth="yes"/>
      <point x="209.79999999999998" y="229.99999999999997"/>
      <point x="409.2" y="44.4"/>
      <point x="573.6" y="45.0" type="qcurve" smooth="yes"/>
      <point x="738.0" y="45.0"/>
      <point x="938.2" y="224.0"/>
      <point x="938.2" y="380.40000000000003" type="qcurve" smooth="yes"/>
      <point x="938.2" y="526.0"/>
      <point x="738.4000000000001" y="708.6"/>
      <point x="573.6" y="708.6" type="qcurve" smooth="yes"/>
      <point x="404.8" y="708.0"/>
      <point x="209.79999999999998" y="526.0"/>
    </contour>
    <contour>
      <point x="253.80000000000004" y="1092.6" type="qcurve" smooth="yes"/>
      <point x="253.80000000000004" y="957.8"/>
      <point x="427.4" y="782.8000000000001"/>
      <point x="573.6" y="782.2" type="qcurve" smooth="yes"/>
      <point x="716.2" y="782.2"/>
      <point x="894.2" y="957.8"/>
      <point x="894.2" y="1092.6" type="qcurve" smooth="yes"/>
      <point x="894.2" y="1233.0000000000002"/>
      <point x="715.8000000000001" y="1410.6"/>
      <point x="573.6" y="1410.6" type="qcurve" smooth="yes"/>
      <point x="431.40000000000003" y="1411.2"/>
      <point x="253.80000000000004" y="1233.0"/>
    </contour>
  </outline>
</glyph>
<glyph name="nine" format="2">
  <advance width="1148"/>
  <unicode hex="0039"/>
  <outline>
    <contour>
      <point x="99.6" y="992.4" type="qcurve" smooth="yes"/>
      <point x="99.6" y="1213.6"/>
      <point x="339.2" y="1485.6"/>
      <point x="535.2" y="1485.6" type="qcurve" smooth="yes"/>
      <point x="743.4000000000001" y="1485.6"/>
      <point x="1014.4" y="1168.8"/>
      <point x="1014.4" y="842.0" type="qcurve" smooth="yes"/>
      <point x="1014.4" y="812.0" type="line" smooth="yes"/>
      <point x="1014.4" y="428.8"/>
      <point x="617.2" y="-29.6"/>
      <point x="308.0" y="-29.6" type="qcurve" smooth="yes"/>
      <point x="287.0" y="-29.6" type="line"/>
      <point x="287.0" y="45.0" type="line"/>
      <point x="308.0" y="45.0" type="line" smooth="yes"/>
      <point x="574.6" y="45.0"/>
      <point x="936.8" y="438.59999999999997"/>
      <point x="936.8" y="802.8000000000001" type="qcurve" smooth="yes"/>
      <point x="936.8" y="851.6" type="line" smooth="yes"/>
      <point x="936.8" y="1155.6"/>
      <point x="708.1999999999999" y="1411.4"/>
      <point x="535.2" y="1411.4" type="qcurve" smooth="yes"/>
      <point x="370.6" y="1411.4"/>
      <point x="178.79999999999998" y="1191.0"/>
      <point x="178.79999999999998" y="992.4" type="qcurve" smooth="yes"/>
      <point x="178.79999999999998" y="807.6"/>
      <point x="367.2" y="604.8000000000001"/>
      <point x="526.0000000000001" y="604.8000000000001" type="qcurve" smooth="yes"/>
      <point x="683.0" y="604.8000000000001"/>
      <point x="941.2" y="829.6000000000001"/>
      <point x="941.1999999999999" y="992.0" type="qcurve"/>
      <point x="979.2" y="992.0" type="line"/>
      <point x="979.2" y="789.6"/>
      <point x="698.8" y="530.1999999999999"/>
      <point x="512.0" y="530.1999999999999" type="qcurve" smooth="yes"/>
      <point x="324.59999999999997" y="530.1999999999999"/>
      <point x="99.6" y="784.8000000000001"/>
    </contour>
  </outline>
</glyph>
<glyph name="colon" format="2">
  <advance width="492"/>
  <unicode hex="003A"/>
  <outline>
    <contour>
      <point x="181.09046153846154" y="62.10830769230768" type="qcurve" smooth="yes"/>
      <point x="181.09046153846154" y="96.71569230769231"/>
      <point x="214.83846153846156" y="145.81661538461537"/>
      <point x="246.08246153846156" y="145.81661538461537" type="qcurve" smooth="yes"/>
      <point x="277.49323076923076" y="145.81661538461537"/>
      <point x="311.0744615384616" y="96.71569230769231"/>
      <point x="311.0744615384616" y="62.10830769230768" type="qcurve" smooth="yes"/>
      <point x="311.0744615384616" y="27.470153846153845"/>
      <point x="277.4624615384615" y="-21.630769230769232"/>
      <point x="246.0516923076923" y="-21.630769230769232" type="qcurve" smooth="yes"/>
      <point x="214.77692307692305" y="-21.630769230769232"/>
      <point x="181.09046153846154" y="27.470153846153845"/>
    </contour>
    <contour>
      <point x="181.09046153846154" y="979.7686153846153" type="qcurve" smooth="yes"/>
      <point x="181.09046153846154" y="1014.3759999999999"/>
      <point x="214.83846153846156" y="1063.476923076923"/>
      <point x="246.08246153846156" y="1063.476923076923" type="qcurve" smooth="yes"/>
      <point x="277.49323076923076" y="1063.476923076923"/>
      <point x="311.0744615384616" y="1014.3759999999999"/>
      <point x="311.0744615384616" y="979.7686153846153" type="qcurve" smooth="yes"/>
      <point x="311.0744615384616" y="945.1304615384615"/>
      <point x="277.4624615384615" y="896.0295384615384"/>
      <point x="246.0516923076923" y="896.0295384615384" type="qcurve" smooth="yes"/>
      <point x="214.77692307692305" y="896.0295384615384"/>
      <point x="181.09046153846154" y="945.1304615384615"/>
    </contour>
  </outline>
</glyph>
<glyph name="semicolon" format="2">
  <advance width="492"/>
  <unicode hex="003B"/>
  <outline>
    <contour>
      <point x="160.5796923076923" y="-152.40923076923073" type="line"/>
      <point x="188.15876923076925" y="-107.98523076923075"/>
      <point x="216.25846153846152" y="-13.185846153846152"/>
      <point x="216.07384615384615" y="50.385230769230766" type="qcurve" smooth="yes"/>
      <point x="216.01230769230767" y="152.61661538461536" type="line"/>
      <point x="306.8849230769231" y="152.6473846153846" type="line"/>
      <point x="306.94646153846156" y="50.44676923076923" type="line" smooth="yes"/>
      <point x="307.13107692307693" y="-26.815384615384612"/>
      <point x="261.2098461538461" y="-143.5243076923077"/>
      <point x="219.91415384615385" y="-190.28923076923076" type="qcurve"/>
    </contour>
    <contour>
      <point x="180.68246153846155" y="979.7686153846153" type="qcurve" smooth="yes"/>
      <point x="180.68246153846155" y="1014.3759999999999"/>
      <point x="214.43046153846154" y="1063.476923076923"/>
      <point x="245.67446153846154" y="1063.476923076923" type="qcurve" smooth="yes"/>
      <point x="277.0852307692308" y="1063.476923076923"/>
      <point x="310.6664615384616" y="1014.3759999999999"/>
      <point x="310.6664615384616" y="979.7686153846153" type="qcurve" smooth="yes"/>
      <point x="310.6664615384616" y="945.1304615384615"/>
      <point x="277.0544615384615" y="896.0295384615384"/>
      <point x="245.64369230769228" y="896.0295384615384" type="qcurve" smooth="yes"/>
      <point x="214.36892307692307" y="896.0295384615384"/>
      <point x="180.68246153846155" y="945.1304615384615"/>
    </contour>
  </outline>
</glyph>
<glyph name="less" format="2">
  <advance width="1195"/>
  <unicode hex="003C"/>
  <outline>
    <contour>
      <point x="1017.051076923077" y="255.53046153846154" type="line"/>
      <point x="169.7846153846154" y="635.2172307692308" type="line"/>
      <point x="169.7846153846154" y="713.2960000000002" type="line"/>
      <point x="1017.051076923077" y="1091.684307692308" type="line"/>
      <point x="1017.051076923077" y="1004.1003076923078" type="line"/>
      <point x="260.3778461538461" y="673.592" type="line"/>
      <point x="1017.051076923077" y="341.75446153846156" type="line"/>
    </contour>
  </outline>
</glyph>
<glyph name="equal" format="2">
  <advance width="1197"/>
  <unicode hex="003D"/>
  <outline>
    <contour>
      <point x="194.40307692307692" y="440.7624615384615" type="line"/>
      <point x="194.40307692307692" y="515.4436923076923" type="line"/>
      <point x="1002.0781538461539" y="515.4436923076923" type="line"/>
      <point x="1002.0781538461539" y="440.7624615384615" type="line"/>
    </contour>
    <contour>
      <point x="194.40307692307692" y="835.3944615384615" type="line"/>
      <point x="194.40307692307692" y="910.0756923076923" type="line"/>
      <point x="1002.0781538461539" y="910.0756923076923" type="line"/>
      <point x="1002.0781538461539" y="835.3944615384615" type="line"/>
    </contour>
  </outline>
</glyph>
<glyph name="greater" format="2">
  <advance width="1195"/>
  <unicode hex="003E"/>
  <outline>
    <contour>
      <point x="177.53846153846155" y="254.17046153846155" type="line"/>
      <point x="177.53846153846155" y="341.75446153846156" type="line"/>
      <point x="934.3476923076923" y="674.952" type="line"/>
      <point x="177.53846153846155" y="1008.1803076923077" type="line"/>
      <point x="177.53846153846155" y="1094.4043076923078" type="line"/>
      <point x="1024.804923076923" y="713.2960000000002" type="line"/>
      <point x="1024.804923076923" y="635.2172307692308" type="line"/>
    </contour>
  </outline>
</glyph>
<glyph name="question" format="2">
  <advance width="776"/>
  <unicode hex="003F"/>
  <outline>
    <contour>
      <point x="274.40492307692307" y="62.10830769230768" type="qcurve" smooth="yes"/>
      <point x="274.40492307692307" y="96.71569230769231"/>
      <point x="308.15292307692306" y="145.81661538461537"/>
      <point x="339.39692307692303" y="145.81661538461537" type="qcurve" smooth="yes"/>
      <point x="370.8076923076923" y="145.81661538461537"/>
      <point x="404.5249230769231" y="96.71569230769231"/>
      <point x="404.5249230769231" y="62.10830769230768" type="qcurve" smooth="yes"/>
      <point x="404.5249230769231" y="27.470153846153845"/>
      <point x="370.7769230769231" y="-21.630769230769232"/>
      <point x="339.3661538461538" y="-21.630769230769232" type="qcurve" smooth="yes"/>
      <point x="308.09138461538464" y="-21.630769230769232"/>
      <point x="274.40492307692307" y="27.470153846153845"/>
    </contour>
    <contour>
      <point x="46.762461538461544" y="1094.7230769230769" type="line"/>
      <point x="46.762461538461544" y="1115.4615384615383" type="line" smooth="yes"/>
      <point x="46.762461538461544" y="1279.7021538461538"/>
      <point x="222.32800000000003" y="1476.0"/>
      <point x="375.61107692307695" y="1476.0" type="qcurve" smooth="yes"/>
      <point x="527.6147692307691" y="1476.0"/>
      <point x="697.7021538461539" y="1281.9304615384615"/>
      <point x="697.7021538461539" y="1135.204923076923" type="qcurve" smooth="yes"/>
      <point x="697.7021538461539" y="997.0184615384616"/>
      <point x="597.8683076923077" y="828.0406153846153"/>
      <point x="515.9772307692308" y="739.1593846153846" type="qcurve" smooth="yes"/>
      <point x="430.25199999999995" y="645.843076923077"/>
      <point x="373.63046153846153" y="498.80615384615385"/>
      <point x="373.63046153846153" y="420.15384615384613" type="qcurve" smooth="yes"/>
      <point x="373.63046153846153" y="410.15384615384613" type="line"/>
      <point x="296.6590769230769" y="410.15384615384613" type="line"/>
      <point x="296.6590769230769" y="420.2898461538461" type="line" smooth="yes"/>
      <point x="296.6590769230769" y="533.8793846153845"/>
      <point x="375.83415384615387" y="695.6363076923077"/>
      <point x="456.85292307692305" y="784.147076923077" type="qcurve" smooth="yes"/>
      <point x="535.3123076923076" y="871.1452307692308"/>
      <point x="618.9627692307693" y="1019.684923076923"/>
      <point x="618.9627692307693" y="1135.204923076923" type="qcurve" smooth="yes"/>
      <point x="618.9627692307693" y="1250.862153846154"/>
      <point x="496.0492307692307" y="1401.2283076923077"/>
      <point x="375.6110769230769" y="1401.2283076923077" type="qcurve" smooth="yes"/>
      <point x="255.29723076923074" y="1401.2283076923077"/>
      <point x="125.38584615384616" y="1250.7778461538462"/>
      <point x="125.38584615384616" y="1115.0923076923077" type="qcurve" smooth="yes"/>
      <point x="125.38584615384616" y="1094.7230769230769" type="line"/>
    </contour>
  </outline>
</glyph>
<glyph name="at" format="2">
  <advance width="1984"/>
  <unicode hex="0040"/>
  <outline>
    <contour>
      <point x="641.2621538461539" y="400.0" type="qcurve" smooth="yes"/>
      <point x="641.2621538461539" y="679.876923076923"/>
      <point x="893.6452307692308" y="1052.0"/>
      <point x="1071.2006153846153" y="1052.0" type="qcurve" smooth="yes"/>
      <point x="1145.2630769230768" y="1052.0"/>
      <point x="1274.0984615384616" y="979.6578461538461"/>
      <point x="1308.748923076923" y="946.0" type="qcurve"/>
      <point x="1330.5255384615382" y="946.0" type="line"/>
      <point x="1204.9083076923075" y="350.0" type="line" smooth="yes"/>
      <point x="1171.8664615384614" y="192.56123076923078"/>
      <point x="1310.2024615384616" y="68.71692307692307"/>
      <point x="1426.1366153846154" y="68.71692307692307" type="qcurve" smooth="yes"/>
      <point x="1591.3889542356378" y="68.71692307692307"/>
      <point x="1798.6578461538463" y="390.51692307692304"/>
      <point x="1798.6578461538463" y="650.0" type="qcurve" smooth="yes"/>
      <point x="1798.6578461538463" y="952.8221538461538"/>
      <point x="1399.7205638160722" y="1411.3144615384615"/>
      <point x="1039.048" y="1411.3144615384615" type="qcurve" smooth="yes"/>
      <point x="678.8198769230769" y="1411.3144615384615"/>
      <point x="191.22215384615382" y="853.7532307692308"/>
      <point x="191.22215384615382" y="460.0" type="qcurve" smooth="yes"/>
      <point x="191.22215384615382" y="60.935384615384606"/>
      <point x="615.892923076923" y="-371.3144615384615"/>
      <point x="934.5089230769232" y="-371.3144615384615" type="qcurve" smooth="yes"/>
      <point x="1080.7913846153847" y="-371.3144615384615"/>
      <point x="1283.6953846153845" y="-317.6221538461538"/>
      <point x="1353.0910769230768" y="-281.3144615384615" type="qcurve"/>
      <point x="1353.0910769230768" y="-354.73846153846154" type="line"/>
      <point x="1279.6812307692308" y="-398.73846153846154"/>
      <point x="1080.976" y="-444.73846153846154"/>
      <point x="934.5089230769232" y="-444.73846153846154" type="qcurve" smooth="yes"/>
      <point x="592.7661538461538" y="-444.73846153846154"/>
      <point x="113.26153846153846" y="40.276923076923076"/>
      <point x="113.26153846153846" y="460.0" type="qcurve" smooth="yes"/>
      <point x="113.26153846153846" y="879.6307692307693"/>
      <point x="655.7286153846154" y="1484.7384615384615"/>
      <point x="1039.048" y="1484.7384615384615" type="qcurve" smooth="yes"/>
      <point x="1419.4855384615382" y="1484.7384615384615"/>
      <point x="1872.3735384615386" y="999.5692307692308"/>
      <point x="1872.3735384615386" y="650.0" type="qcurve" smooth="yes"/>
      <point x="1872.3735384615386" y="360.33846153846156"/>
      <point x="1616.2086153846153" y="0.0"/>
      <point x="1430.864" y="0.0" type="qcurve" smooth="yes"/>
      <point x="1317.0196818774448" y="0.0"/>
      <point x="1158.65013722976" y="103.18205735546064"/>
      <point x="1126.206153846154" y="191.12984615384616" type="qcurve"/>
      <point x="1090.514728865671" y="103.26414642716888"/>
      <point x="961.1194448755991" y="0.0"/>
      <point x="882.8055384615385" y="0.0" type="qcurve" smooth="yes"/>
      <point x="771.5396923076923" y="0.0"/>
      <point x="641.2621538461539" y="220.1846153846154"/>
    </contour>
    <contour>
      <point x="720.0203076923075" y="400.0" type="qcurve" smooth="yes"/>
      <point x="720.0203076923075" y="240.17107692307692"/>
      <point x="813.7699417475727" y="73.42399999999999"/>
      <point x="902.6270769230769" y="73.42399999999999" type="qcurve" smooth="yes"/>
      <point x="979.6043147119041" y="73.42399999999999"/>
      <point x="1095.49272220662" y="217.23221327342094"/>
      <point x="1133.4246153846154" y="390.18461538461537" type="qcurve" smooth="yes"/>
      <point x="1250.0433846153846" y="923.8215384615386" type="line"/>
      <point x="1220.9186353555485" y="948.5830988007235"/>
      <point x="1129.5396923076921" y="982.3144615384616"/>
      <point x="1085.4107692307691" y="982.3144615384616" type="qcurve" smooth="yes"/>
      <point x="926.6473315649868" y="982.3144615384616"/>
      <point x="720.0203076923075" y="650.3267692307692"/>
    </contour>
  </outline>
</glyph>
<glyph name="A" format="2">
  <advance width="1150"/>
  <unicode hex="0041"/>
  <anchor x="577.6307692307693" y="1432.0" name="top"/>
  <outline>
    <contour>
      <point x="0.0" y="0.0" type="line"/>
      <point x="529.8953846153846" y="1466.2153846153844" type="line"/>
      <point x="621.5249230769232" y="1466.2153846153844" type="line"/>
      <point x="1151.2215384615383" y="0.0" type="line"/>
      <point x="1065.356923076923" y="0.0" type="line"/>
      <point x="625.585846153846" y="1245.8627692307691" type="line" smooth="yes"/>
      <point x="611.160923076923" y="1283.843076923077"/>
      <point x="587.9606153846153" y="1353.1735384615383"/>
      <point x="578.7107692307694" y="1389.4412307692307" type="qcurve"/>
      <point x="568.3556923076923" y="1389.4412307692307" type="line"/>
      <point x="559.2609230769231" y="1353.1735384615383"/>
      <point x="535.7079999999999" y="1283.5661538461536"/>
      <point x="521.5113846153846" y="1245.8319999999999" type="qcurve" smooth="yes"/>
      <point x="80.77476923076924" y="0.0" type="line"/>
    </contour>
    <contour>
      <point x="193.09353846153846" y="426.5163076923077" type="line"/>
      <point x="220.42030769230772" y="495.09723076923075" type="line"/>
      <point x="929.2812307692308" y="495.09723076923075" type="line"/>
      <point x="955.6080000000001" y="426.5163076923077" type="line"/>
    </contour>
  </outline>
</glyph>
<glyph name="B" format="2">
  <advance width="1097"/>
  <unicode hex="0042"/>
  <outline>
    <contour>
      <point x="172.10461538461539" y="0.0" type="line"/>
      <point x="172.10461538461539" y="1456.0" type="line"/>
      <point x="567.9027692307692" y="1456.0" type="line" smooth="yes"/>
      <point x="752.1673846153844" y="1456.0"/>
      <point x="958.1984615384616" y="1278.2990769230769"/>
      <point x="958.1984615384616" y="1088.9833846153845" type="qcurve" smooth="yes"/>
      <point x="958.1984615384616" y="960.3766153846153"/>
      <point x="843.3292307692308" y="794.7452307692306"/>
      <point x="755.6489230769231" y="766.392" type="qcurve"/>
      <point x="755.6489230769231" y="762.4843076923075" type="line"/>
      <point x="864.1433846153845" y="734.2233846153846"/>
      <point x="998.324" y="548.446153846154"/>
      <point x="998.324" y="398.29292307692305" type="qcurve" smooth="yes"/>
      <point x="998.324" y="209.28492307692306"/>
      <point x="783.7486153846154" y="0.0"/>
      <point x="599.612923076923" y="0.0" type="qcurve" smooth="yes"/>
    </contour>
    <contour>
      <point x="250.49476923076926" y="73.96984615384613" type="line"/>
      <point x="599.7667692307691" y="73.96984615384613" type="line" smooth="yes"/>
      <point x="764.6615384615384" y="73.96984615384613"/>
      <point x="918.8486153846153" y="250.12307692307695"/>
      <point x="918.8486153846153" y="398.26215384615386" type="qcurve" smooth="yes"/>
      <point x="918.8486153846153" y="546.444923076923"/>
      <point x="764.6606068848279" y="721.3803076923077"/>
      <point x="599.7667692307691" y="721.3803076923077" type="qcurve" smooth="yes"/>
      <point x="250.49476923076926" y="721.3803076923077" type="line"/>
    </contour>
    <contour>
      <point x="250.49476923076926" y="794.8658461538462" type="line"/>
      <point x="568.5667692307693" y="794.8658461538462" type="line" smooth="yes"/>
      <point x="733.7833846153845" y="794.8658461538462"/>
      <point x="878.5255384615385" y="951.1698461538462"/>
      <point x="878.5255384615385" y="1088.9833846153845" type="qcurve" smooth="yes"/>
      <point x="878.5255384615385" y="1230.5846153846153"/>
      <point x="732.4959093484418" y="1382.030153846154"/>
      <point x="567.7667692307692" y="1382.030153846154" type="qcurve" smooth="yes"/>
      <point x="250.49476923076926" y="1382.030153846154" type="line"/>
    </contour>
  </outline>
</glyph>
<glyph name="C" format="2">
  <advance width="1165"/>
  <unicode hex="0043"/>
  <anchor x="648.0923076923077" y="0" name="bottom"/>
  <outline>
    <contour>
      <point x="117.01230769230769" y="689.5895384615385" type="qcurve" smooth="yes"/>
      <point x="117.01230769230769" y="766.9027692307693" type="line" smooth="yes"/>
      <point x="117.01230769230769" y="1107.9513846153848"/>
      <point x="413.7910769230769" y="1485.6923076923076"/>
      <point x="640.493846153846" y="1485.6923076923076" type="qcurve" smooth="yes"/>
      <point x="863.3479999999998" y="1485.6923076923076"/>
      <point x="1096.2486153846153" y="1201.8603076923077"/>
      <point x="1112.9132307692305" y="1000.7692307692308" type="qcurve" smooth="yes"/>
      <point x="1113.7464615384613" y="989.8461538461538" type="line"/>
      <point x="1033.7670769230767" y="989.8461538461538" type="line"/>
      <point x="1032.933846153846" y="1000.5846153846154" type="line" smooth="yes"/>
      <point x="1020.0661538461538" y="1154.988923076923"/>
      <point x="836.3879673968415" y="1410.4363076923075"/>
      <point x="640.4630769230768" y="1410.4363076923075" type="qcurve" smooth="yes"/>
      <point x="444.4847449392712" y="1410.4363076923075"/>
      <point x="197.35969230769228" y="1070.1575384615385"/>
      <point x="197.35969230769228" y="767.4566153846154" type="qcurve" smooth="yes"/>
      <point x="197.35969230769228" y="689.0356923076923" type="line" smooth="yes"/>
      <point x="197.35969230769228" y="385.9017361033127"/>
      <point x="444.51551417004043" y="45.59446153846152"/>
      <point x="640.34" y="45.59446153846152" type="qcurve" smooth="yes"/>
      <point x="836.4187366276108" y="45.59446153846152"/>
      <point x="1018.1621538461538" y="301.51630769230763"/>
      <point x="1032.933846153846" y="455.41538461538465" type="qcurve" smooth="yes"/>
      <point x="1033.9030769230767" y="466.15384615384613" type="line"/>
      <point x="1113.8824615384613" y="466.15384615384613" type="line"/>
      <point x="1112.9132307692305" y="455.2307692307692" type="line" smooth="yes"/>
      <point x="1093.5286153846153" y="254.64492307692308"/>
      <point x="863.4403076923077" y="-29.692307692307693"/>
      <point x="640.34" y="-29.692307692307693" type="qcurve" smooth="yes"/>
      <point x="413.8526153846153" y="-29.692307692307693"/>
      <point x="117.01230769230769" y="347.993452031115"/>
    </contour>
  </outline>
</glyph>
<glyph name="D" format="2">
  <advance width="1205"/>
  <unicode hex="0044"/>
  <outline>
    <contour>
      <point x="172.10461538461539" y="0.0" type="line"/>
      <point x="172.10461538461539" y="1456.0" type="line"/>
      <point x="513.3255384615384" y="1456.0" type="line" smooth="yes"/>
      <point x="769.2793846153846" y="1456.0"/>
      <point x="1088.0021538461538" y="1084.4596923076924"/>
      <point x="1088.0021538461538" y="766.2873846153847" type="qcurve" smooth="yes"/>
      <point x="1088.0021538461538" y="689.5587692307693" type="line" smooth="yes"/>
      <point x="1088.0021538461538" y="370.68350295857994"/>
      <point x="768.2024615384615" y="0.0"/>
      <point x="513.3255384615384" y="0.0" type="qcurve" smooth="yes"/>
    </contour>
    <contour>
      <point x="251.23076923076925" y="73.96984615384616" type="line"/>
      <point x="513.3255384615384" y="73.96984615384616" type="line" smooth="yes"/>
      <point x="740.040765478424" y="73.96984615384616"/>
      <point x="1007.6547692307693" y="400.93523076923077"/>
      <point x="1007.6547692307693" y="689.3433846153846" type="qcurve" smooth="yes"/>
      <point x="1007.6547692307693" y="766.5643076923077" type="line" smooth="yes"/>
      <point x="1007.6547692307693" y="1054.1286153846154"/>
      <point x="741.117688555347" y="1382.030153846154"/>
      <point x="513.3255384615384" y="1382.030153846154" type="qcurve" smooth="yes"/>
      <point x="251.23076923076925" y="1382.030153846154" type="line"/>
    </contour>
  </outline>
</glyph>
<glyph name="E" format="2">
  <advance width="1010"/>
  <unicode hex="0045"/>
  <anchor x="573.8461538461539" y="1415.136" name="top"/>
  <outline>
    <contour>
      <point x="172.10461538461539" y="0.0" type="line"/>
      <point x="172.10461538461539" y="1456.0" type="line"/>
      <point x="934.3163076923076" y="1456.0" type="line"/>
      <point x="934.3163076923076" y="1382.030153846154" type="line"/>
      <point x="251.23076923076925" y="1382.030153846154" type="line"/>
      <point x="251.23076923076925" y="788.0092307692307" type="line"/>
      <point x="837.0689230769229" y="788.0092307692307" type="line"/>
      <point x="837.0689230769229" y="714.1753846153846" type="line"/>
      <point x="251.23076923076925" y="714.1753846153846" type="line"/>
      <point x="251.23076923076925" y="73.96984615384616" type="line"/>
      <point x="944.7624615384615" y="73.96984615384616" type="line"/>
      <point x="944.7624615384615" y="0.0" type="line"/>
    </contour>
  </outline>
</glyph>
<glyph name="F" format="2">
  <advance width="977"/>
  <unicode hex="0046"/>
  <outline>
    <contour>
      <point x="172.10461538461539" y="0.0" type="line"/>
      <point x="172.10461538461539" y="1456.0" type="line"/>
      <point x="920.0744615384616" y="1456.0" type="line"/>
      <point x="920.0744615384616" y="1382.030153846154" type="line"/>
      <point x="251.23076923076925" y="1382.030153846154" type="line"/>
      <point x="251.23076923076925" y="761.2615384615385" type="line"/>
      <point x="824.328" y="761.2615384615385" type="line"/>
      <point x="824.328" y="687.4276923076924" type="line"/>
      <point x="251.23076923076925" y="687.4276923076924" type="line"/>
      <point x="251.23076923076925" y="0.0" type="line"/>
    </contour>
  </outline>
</glyph>
<glyph name="G" format="2">
  <advance width="1198"/>
  <unicode hex="0047"/>
  <outline>
    <contour>
      <point x="117.01230769230769" y="689.7255384615385" type="qcurve" smooth="yes"/>
      <point x="117.01230769230769" y="766.7667692307692" type="line" smooth="yes"/>
      <point x="117.01230769230769" y="1107.6744615384616"/>
      <point x="414.2347692307692" y="1485.6923076923076"/>
      <point x="640.7787692307691" y="1485.6923076923076" type="qcurve" smooth="yes"/>
      <point x="864.045846153846" y="1485.6923076923076"/>
      <point x="1098.516923076923" y="1220.8436923076922"/>
      <point x="1116.4664615384615" y="1040.6283076923078" type="qcurve" smooth="yes"/>
      <point x="1117.4356923076923" y="1029.876923076923" type="line"/>
      <point x="1037.4563076923075" y="1029.876923076923" type="line"/>
      <point x="1036.4870769230768" y="1040.6283076923078" type="line" smooth="yes"/>
      <point x="1023.3149997735699" y="1172.8612820729238"/>
      <point x="837.0226837232789" y="1410.4363076923075"/>
      <point x="640.7787692307691" y="1410.4363076923075" type="qcurve" smooth="yes"/>
      <point x="444.9592064777328" y="1410.4363076923075"/>
      <point x="197.35969230769228" y="1069.6215384615386"/>
      <point x="197.35969230769228" y="767.3206153846154" type="qcurve" smooth="yes"/>
      <point x="197.35969230769228" y="689.1716923076923" type="line" smooth="yes"/>
      <point x="197.35969230769228" y="387.5146591802358"/>
      <point x="443.03300125645677" y="45.62523076923076"/>
      <point x="670.2723076923077" y="45.62523076923076" type="qcurve" smooth="yes"/>
      <point x="791.2588095838587" y="45.62523076923076"/>
      <point x="965.6211452306317" y="110.72511487171846"/>
      <point x="1041.8744615384617" y="175.87076923076924" type="qcurve"/>
      <point x="1041.8744615384617" y="610.1156923076924" type="line"/>
      <point x="648.8833846153844" y="610.1156923076924" type="line"/>
      <point x="648.8833846153844" y="684.0855384615384" type="line"/>
      <point x="1116.7556923076922" y="684.0855384615384" type="line"/>
      <point x="1116.7556923076922" y="144.7993846153846" type="line"/>
      <point x="1050.6658461538461" y="75.63015384615385"/>
      <point x="831.8019895104895" y="-29.692307692307693"/>
      <point x="670.2107692307692" y="-29.692307692307693" type="qcurve" smooth="yes"/>
      <point x="414.90338461538454" y="-29.692307692307693"/>
      <point x="117.01230769230769" y="349.53191356957655"/>
    </contour>
  </outline>
</glyph>
<glyph name="H" format="2">
  <advance width="1295"/>
  <unicode hex="0048"/>
  <outline>
    <contour>
      <point x="172.10461538461539" y="0.0" type="line"/>
      <point x="172.10461538461539" y="1456.0" type="line"/>
      <point x="251.23076923076925" y="1456.0" type="line"/>
      <point x="251.23076923076925" y="788.1015384615384" type="line"/>
      <point x="1043.3735384615386" y="788.1015384615384" type="line"/>
      <point x="1043.3735384615386" y="1456.0" type="line"/>
      <point x="1122.4996923076924" y="1456.0" type="line"/>
      <point x="1122.4996923076924" y="0.0" type="line"/>
      <point x="1043.3735384615386" y="0.0" type="line"/>
      <point x="1043.3735384615386" y="714.3292307692308" type="line"/>
      <point x="251.23076923076925" y="714.3292307692308" type="line"/>
      <point x="251.23076923076925" y="0.0" type="line"/>
    </contour>
  </outline>
</glyph>
<glyph name="I" format="2">
  <advance width="436"/>
  <unicode hex="0049"/>
  <anchor x="219.09230769230768" y="1432.0" name="top"/>
  <outline>
    <contour>
      <point x="178.43384615384616" y="0.0" type="line"/>
      <point x="178.43384615384616" y="1456.0" type="line"/>
      <point x="257.55999999999995" y="1456.0" type="line"/>
      <point x="257.55999999999995" y="0.0" type="line"/>
    </contour>
  </outline>
</glyph>
<glyph name="J" format="2">
  <advance width="931"/>
  <unicode hex="004A"/>
  <outline>
    <contour>
      <point x="25.369230769230768" y="411.27200000000005" type="qcurve" smooth="yes"/>
      <point x="25.369230769230768" y="422.1950769230769" type="line"/>
      <point x="105.34861538461539" y="422.1950769230769" type="line"/>
      <point x="105.34861538461539" y="411.5489230769231" type="line" smooth="yes"/>
      <point x="105.34861538461539" y="232.12184615384612"/>
      <point x="264.419222043628" y="45.59446153846153"/>
      <point x="401.70676923076917" y="45.59446153846153" type="qcurve" smooth="yes"/>
      <point x="539.1481625717565" y="45.59446153846153"/>
      <point x="695.4501538461537" y="248.0314734337827"/>
      <point x="695.4501538461537" y="437.47200000000004" type="qcurve" smooth="yes"/>
      <point x="695.4501538461537" y="1456.0" type="line"/>
      <point x="774.5763076923075" y="1456.0" type="line"/>
      <point x="774.5763076923075" y="437.1950769230769" type="line" smooth="yes"/>
      <point x="774.3043076923076" y="220.0508402366864"/>
      <point x="569.7698461538462" y="-29.692307692307693"/>
      <point x="401.70676923076917" y="-29.692307692307693" type="qcurve" smooth="yes"/>
      <point x="233.8590769230769" y="-29.692307692307693"/>
      <point x="25.369230769230768" y="205.73476923076922"/>
    </contour>
  </outline>
</glyph>
<glyph name="K" format="2">
  <advance width="1122"/>
  <unicode hex="004B"/>
  <outline>
    <contour>
      <point x="172.10461538461539" y="0.0" type="line"/>
      <point x="172.10461538461539" y="1456.0" type="line"/>
      <point x="250.37784615384615" y="1456.0" type="line"/>
      <point x="250.37784615384615" y="652.4750769230769" type="line"/>
      <point x="1009.363076923077" y="1456.0" type="line"/>
      <point x="1111.6233846153846" y="1456.0" type="line"/>
      <point x="251.23076923076925" y="551.1341538461538" type="line"/>
      <point x="251.23076923076925" y="0.0" type="line"/>
    </contour>
    <contour>
      <point x="1035.7649230769232" y="0.0" type="line"/>
      <point x="426.41599999999994" y="786.9083076923076" type="line"/>
      <point x="479.4024615384615" y="845.468923076923" type="line"/>
      <point x="1136.8615384615387" y="0.0" type="line"/>
    </contour>
  </outline>
</glyph>
<glyph name="L" format="2">
  <advance width="933"/>
  <unicode hex="004C"/>
  <outline>
    <contour>
      <point x="172.10461538461539" y="0.0" type="line"/>
      <point x="172.10461538461539" y="1456.0" type="line"/>
      <point x="251.23076923076925" y="1456.0" type="line"/>
      <point x="251.23076923076925" y="73.96984615384616" type="line"/>
      <point x="908.52" y="73.96984615384616" type="line"/>
      <point x="908.52" y="0.0" type="line"/>
    </contour>
  </outline>
</glyph>
<glyph name="M" format="2">
  <advance width="1648"/>
  <unicode hex="004D"/>
  <outline>
    <contour>
      <point x="172.10461538461539" y="0.0" type="line"/>
      <point x="172.10461538461539" y="1456.0" type="line"/>
      <point x="269.3015384615384" y="1456.0" type="line"/>
      <point x="775.756923076923" y="220.32923076923075" type="line" smooth="yes"/>
      <point x="787.616" y="191.0369230769231"/>
      <point x="813.8110769230769" y="112.08307692307692"/>
      <point x="821.7009230769232" y="82.88307692307693" type="qcurve"/>
      <point x="829.5907692307692" y="82.88307692307693" type="line"/>
      <point x="838.3138461538462" y="112.08307692307692"/>
      <point x="864.3347692307692" y="191.0676923076923"/>
      <point x="876.027076923077" y="220.32923076923075" type="qcurve" smooth="yes"/>
      <point x="1381.0381538461538" y="1456.0" type="line"/>
      <point x="1474.8455384615384" y="1456.0" type="line"/>
      <point x="1474.8455384615384" y="0.0" type="line"/>
      <point x="1396.8233846153848" y="0.0" type="line"/>
      <point x="1396.8233846153848" y="1195.064" type="line" smooth="yes"/>
      <point x="1396.8233846153848" y="1224.2947692307694"/>
      <point x="1402.793846153846" y="1297.2024615384614"/>
      <point x="1406.670769230769" y="1326.4947692307692" type="qcurve"/>
      <point x="1395.4246153846154" y="1326.4947692307692" type="line"/>
      <point x="1389.1015384615384" y="1297.264"/>
      <point x="1361.1009230769232" y="1224.686153846154"/>
      <point x="1349.4086153846154" y="1195.3193846153847" type="qcurve" smooth="yes"/>
      <point x="859.9852307692308" y="0.0" type="line"/>
      <point x="787.7895384615384" y="0.0" type="line"/>
      <point x="293.9009230769231" y="1194.9716923076921" type="line" smooth="yes"/>
      <point x="281.7741538461538" y="1224.1101538461537"/>
      <point x="256.94584615384616" y="1297.0486153846152"/>
      <point x="250.75876923076922" y="1326.340923076923" type="qcurve"/>
      <point x="239.40738461538461" y="1326.340923076923" type="line"/>
      <point x="243.2843076923077" y="1297.017846153846"/>
      <point x="249.3907692307692" y="1224.0178461538462"/>
      <point x="249.3907692307692" y="1194.8793846153844" type="qcurve" smooth="yes"/>
      <point x="249.3907692307692" y="0.0" type="line"/>
    </contour>
  </outline>
</glyph>
<glyph name="N" format="2">
  <advance width="1300"/>
  <unicode hex="004E"/>
  <anchor x="676.5230769230769" y="1432.0" name="top"/>
  <outline>
    <contour>
      <point x="169.3846153846154" y="0.0" type="line"/>
      <point x="169.3846153846154" y="1456.0" type="line"/>
      <point x="262.5015384615385" y="1456.0" type="line"/>
      <point x="1002.4836923076922" y="204.6412307692308" type="line" smooth="yes"/>
      <point x="1020.2633846153846" y="174.47199999999998"/>
      <point x="1039.248" y="141.88492307692306"/>
      <point x="1052.8787692307694" y="117.39507692307694" type="qcurve"/>
      <point x="1062.6018461538463" y="117.39507692307694" type="line"/>
      <point x="1058.724923076923" y="146.59507692307693"/>
      <point x="1054.9840000000002" y="202.79507692307695"/>
      <point x="1054.9840000000002" y="231.99507692307694" type="qcurve" smooth="yes"/>
      <point x="1054.9840000000002" y="1456.0" type="line"/>
      <point x="1132.8892307692308" y="1456.0" type="line"/>
      <point x="1132.8892307692308" y="0.0" type="line"/>
      <point x="1040.115076923077" y="0.0" type="line"/>
      <point x="297.1070769230769" y="1250.881846153846" type="line" smooth="yes"/>
      <point x="279.2966153846154" y="1281.1126153846153"/>
      <point x="261.6221538461538" y="1323.7766153846155"/>
      <point x="249.89907692307696" y="1348.328" type="qcurve"/>
      <point x="241.14523076923078" y="1348.328" type="line"/>
      <point x="245.02215384615386" y="1317.138430769231"/>
      <point x="247.92984615384614" y="1258.7895384615385"/>
      <point x="247.92984615384614" y="1229.5587692307693" type="qcurve" smooth="yes"/>
      <point x="247.92984615384614" y="0.0" type="line"/>
    </contour>
  </outline>
</glyph>
<glyph name="O" format="2">
  <advance width="1300"/>
  <unicode hex="004F"/>
  <anchor x="648.0" y="1432.0" name="top"/>
  <outline>
    <contour>
      <point x="117.01230769230769" y="689.5895384615385" type="qcurve" smooth="yes"/>
      <point x="117.01230769230769" y="766.9027692307693" type="line" smooth="yes"/>
      <point x="117.01230769230769" y="1107.5513846153847"/>
      <point x="414.1295384615385" y="1485.6923076923076"/>
      <point x="650.6643076923077" y="1485.6923076923076" type="qcurve" smooth="yes"/>
      <point x="887.0747692307691" y="1485.6923076923076"/>
      <point x="1182.6843076923076" y="1107.5513846153847"/>
      <point x="1182.6843076923076" y="766.9027692307693" type="qcurve" smooth="yes"/>
      <point x="1182.6843076923076" y="689.5895384615385" type="line" smooth="yes"/>
      <point x="1182.6843076923076" y="348.30114433880726"/>
      <point x="887.0747692307691" y="-29.692307692307693"/>
      <point x="650.6643076923077" y="-29.692307692307693" type="qcurve" smooth="yes"/>
      <point x="414.1295384615385" y="-29.692307692307693"/>
      <point x="117.01230769230769" y="348.30114433880726"/>
    </contour>
    <contour>
      <point x="197.35969230769228" y="689.0356923076923" type="line" smooth="yes"/>
      <point x="197.35969230769228" y="381.84696687254353"/>
      <point x="446.1522351564785" y="45.59446153846153"/>
      <point x="650.6335384615385" y="45.59446153846153" type="qcurve" smooth="yes"/>
      <point x="855.0683954372623" y="45.59446153846153"/>
      <point x="1102.472923076923" y="381.81619764177435"/>
      <point x="1102.472923076923" y="689.0972307692307" type="qcurve" smooth="yes"/>
      <point x="1102.472923076923" y="767.4566153846154" type="line" smooth="yes"/>
      <point x="1102.472923076923" y="1074.0584615384616"/>
      <point x="855.0376262064931" y="1410.4363076923075"/>
      <point x="650.6643076923077" y="1410.4363076923075" type="qcurve" smooth="yes"/>
      <point x="446.28823515647855" y="1410.4363076923075"/>
      <point x="197.35969230769228" y="1074.0584615384616"/>
      <point x="197.35969230769228" y="767.4566153846154" type="qcurve" smooth="yes"/>
    </contour>
  </outline>
</glyph>
<glyph name="P" format="2">
  <advance width="1033"/>
  <unicode hex="0050"/>
  <outline>
    <contour>
      <point x="172.10461538461539" y="0.0" type="line"/>
      <point x="172.10461538461539" y="1456.0" type="line"/>
      <point x="566.2012307692308" y="1456.0" type="line" smooth="yes"/>
      <point x="775.9526153846153" y="1456.0"/>
      <point x="981.3209230769231" y="1219.164923076923"/>
      <point x="981.3209230769231" y="1033.1267692307695" type="qcurve" smooth="yes"/>
      <point x="981.3209230769231" y="847.0886153846154"/>
      <point x="775.9526153846153" y="609.2233846153846"/>
      <point x="566.2012307692308" y="609.2233846153846" type="qcurve" smooth="yes"/>
      <point x="251.23076923076925" y="609.2233846153846" type="line"/>
      <point x="251.23076923076925" y="0.0" type="line"/>
    </contour>
    <contour>
      <point x="251.23076923076925" y="683.1932307692308" type="line"/>
      <point x="565.832" y="683.1932307692308" type="line" smooth="yes"/>
      <point x="751.8307466774063" y="683.1932307692308"/>
      <point x="901.4775384615384" y="883.5513846153846"/>
      <point x="901.4775384615384" y="1033.0960000000002" type="qcurve" smooth="yes"/>
      <point x="901.4775384615384" y="1182.6713846153848"/>
      <point x="751.8615159081756" y="1382.030153846154"/>
      <point x="565.8935384615385" y="1382.030153846154" type="qcurve" smooth="yes"/>
      <point x="251.23076923076925" y="1382.030153846154" type="line"/>
    </contour>
  </outline>
</glyph>
<glyph name="Q" format="2">
  <advance width="1300"/>
  <unicode hex="0051"/>
  <outline>
    <contour>
      <point x="117.01230769230769" y="689.5895384615385" type="qcurve" smooth="yes"/>
      <point x="117.01230769230769" y="766.9027692307693" type="line" smooth="yes"/>
      <point x="117.01230769230769" y="1107.5513846153847"/>
      <point x="414.1295384615385" y="1485.6923076923076"/>
      <point x="650.6643076923077" y="1485.6923076923076" type="qcurve" smooth="yes"/>
      <point x="887.0747692307691" y="1485.6923076923076"/>
      <point x="1182.6843076923076" y="1107.5513846153847"/>
      <point x="1182.6843076923076" y="766.9027692307693" type="qcurve" smooth="yes"/>
      <point x="1182.6843076923076" y="689.5895384615385" type="line" smooth="yes"/>
      <point x="1182.6843076923076" y="348.3255384615385"/>
      <point x="887.0747692307691" y="-29.692307692307693"/>
      <point x="650.6643076923077" y="-29.692307692307693" type="qcurve" smooth="yes"/>
      <point x="414.1295384615385" y="-29.692307692307693"/>
      <point x="117.01230769230769" y="348.3255384615385"/>
    </contour>
    <contour>
      <point x="197.35969230769228" y="689.0356923076923" type="line" smooth="yes"/>
      <point x="197.35969230769228" y="381.84923076923076"/>
      <point x="446.1787692307692" y="45.59446153846153"/>
      <point x="650.6335384615385" y="45.59446153846153" type="qcurve" smooth="yes"/>
      <point x="855.0563076923075" y="45.59446153846153"/>
      <point x="1102.472923076923" y="381.8184615384615"/>
      <point x="1102.472923076923" y="689.0972307692307" type="qcurve" smooth="yes"/>
      <point x="1102.472923076923" y="767.4566153846154" type="line" smooth="yes"/>
      <point x="1102.472923076923" y="1074.0584615384616"/>
      <point x="855.0255384615383" y="1410.4363076923075"/>
      <point x="650.6643076923077" y="1410.4363076923075" type="qcurve" smooth="yes"/>
      <point x="446.31476923076923" y="1410.4363076923075"/>
      <point x="197.35969230769228" y="1074.0584615384616"/>
      <point x="197.35969230769228" y="767.4566153846154" type="qcurve" smooth="yes"/>
    </contour>
    <contour>
      <point x="1169.8873846153845" y="-219.8449230769231" type="line"/>
      <point x="672.4073846153847" y="213.3483076923077" type="line"/>
      <point x="726.8772307692308" y="269.1236923076923" type="line"/>
      <point x="1225.4756923076923" y="-161.80800000000002" type="line"/>
    </contour>
  </outline>
</glyph>
<glyph name="R" format="2">
  <advance width="1073"/>
  <unicode hex="0052"/>
  <outline>
    <contour>
      <point x="172.10461538461539" y="0.0" type="line"/>
      <point x="172.10461538461539" y="1456.0" type="line"/>
      <point x="558.6504615384615" y="1456.0" type="line" smooth="yes"/>
      <point x="762.2098461538461" y="1456.0"/>
      <point x="964.1707692307692" y="1230.5889230769233"/>
      <point x="964.1707692307692" y="1047.5193846153848" type="qcurve" smooth="yes"/>
      <point x="964.1707692307692" y="864.3883076923075"/>
      <point x="762.4867692307693" y="637.568"/>
      <point x="558.6504615384615" y="637.568" type="qcurve" smooth="yes"/>
      <point x="251.23076923076925" y="637.568" type="line"/>
      <point x="251.23076923076925" y="0.0" type="line"/>
    </contour>
    <contour>
      <point x="251.23076923076925" y="711.0535384615384" type="line"/>
      <point x="558.6504615384615" y="711.0535384615384" type="line" smooth="yes"/>
      <point x="740.5662902286903" y="711.0535384615384"/>
      <point x="884.3273846153846" y="904.1316923076923"/>
      <point x="884.3273846153846" y="1047.5193846153848" type="qcurve" smooth="yes"/>
      <point x="884.3273846153846" y="1192.297846153846"/>
      <point x="734.7133671517673" y="1382.5144615384615"/>
      <point x="558.6504615384615" y="1382.5144615384615" type="qcurve" smooth="yes"/>
      <point x="251.23076923076925" y="1382.5144615384615" type="line"/>
    </contour>
    <contour>
      <point x="938.3932307692306" y="0.0" type="line"/>
      <point x="569.7292307692308" y="672.276923076923" type="line"/>
      <point x="655.92" y="672.276923076923" type="line"/>
      <point x="1030.256" y="0.0" type="line"/>
    </contour>
  </outline>
</glyph>
<glyph name="S" format="2">
  <advance width="1054"/>
  <unicode hex="0053"/>
  <outline>
    <contour>
      <point x="90.86092307692309" y="389.02399999999994" type="qcurve" smooth="yes"/>
      <point x="90.86092307692309" y="403.1163076923077" type="line"/>
      <point x="169.98707692307693" y="403.1163076923077" type="line"/>
      <point x="169.98707692307693" y="389.1212307692307" type="line" smooth="yes"/>
      <point x="169.98707692307693" y="225.78399999999996"/>
      <point x="362.086062193126" y="45.59446153846153"/>
      <point x="536.7193846153845" y="45.59446153846153" type="qcurve" smooth="yes"/>
      <point x="711.3235967139656" y="45.59446153846153"/>
      <point x="894.516923076923" y="228.94030769230767"/>
      <point x="894.516923076923" y="363.9993846153846" type="qcurve" smooth="yes"/>
      <point x="894.516923076923" y="482.68"/>
      <point x="752.2150769230769" y="635.8670769230769"/>
      <point x="528.9723076923077" y="704.1821538461538" type="qcurve" smooth="yes"/>
      <point x="305.7295384615385" y="772.3612307692307"/>
      <point x="122.57907692307691" y="954.9304615384615"/>
      <point x="122.03507692307691" y="1105.3046153846153" type="qcurve" smooth="yes"/>
      <point x="121.35507692307691" y="1267.5415384615385"/>
      <point x="334.5790769230769" y="1485.6923076923076"/>
      <point x="526.2412307692307" y="1485.6923076923076" type="qcurve" smooth="yes"/>
      <point x="719.144923076923" y="1485.6923076923076"/>
      <point x="943.0886153846153" y="1245.0701538461537"/>
      <point x="943.0886153846153" y="1073.5913846153844" type="qcurve" smooth="yes"/>
      <point x="943.0886153846153" y="1059.8067692307693" type="line"/>
      <point x="863.9624615384614" y="1059.8067692307693" type="line"/>
      <point x="863.9624615384614" y="1073.5298461538462" type="line" smooth="yes"/>
      <point x="862.4664615384614" y="1216.1483076923075"/>
      <point x="695.4743536875496" y="1410.4055384615383"/>
      <point x="526.2719999999999" y="1410.4055384615383" type="qcurve" smooth="yes"/>
      <point x="357.3365366153846" y="1410.4055384615383"/>
      <point x="199.464" y="1240.084923076923"/>
      <point x="199.464" y="1106.8006153846154" type="qcurve" smooth="yes"/>
      <point x="199.464" y="995.1501538461539"/>
      <point x="354.7203076923077" y="846.9981538461539"/>
      <point x="576.7501538461538" y="779.7421538461538" type="qcurve" smooth="yes"/>
      <point x="795.652" y="713.3021538461538"/>
      <point x="973.2750769230769" y="524.2387692307691"/>
      <point x="973.2750769230769" y="364.03015384615384" type="qcurve" smooth="yes"/>
      <point x="973.2750769230769" y="191.22646153846156"/>
      <point x="739.3129230769231" y="-29.692307692307693"/>
      <point x="536.6578461538461" y="-29.692307692307693" type="qcurve" smooth="yes"/>
      <point x="333.2547692307692" y="-29.692307692307693"/>
      <point x="90.86092307692309" y="195.52738461538462"/>
    </contour>
  </outline>
</glyph>
<glyph name="T" format="2">
  <advance width="1042"/>
  <unicode hex="0054"/>
  <outline>
    <contour>
      <point x="23.56923076923077" y="1380.942153846154" type="line"/>
      <point x="23.56923076923077" y="1456.0" type="line"/>
      <point x="1018.4719999999999" y="1456.0" type="line"/>
      <point x="1018.4719999999999" y="1380.942153846154" type="line"/>
      <point x="560.6824615384614" y="1380.942153846154" type="line"/>
      <point x="560.6824615384614" y="0.0" type="line"/>
      <point x="481.55630769230766" y="0.0" type="line"/>
      <point x="481.55630769230766" y="1380.942153846154" type="line"/>
    </contour>
  </outline>
</glyph>
<glyph name="U" format="2">
  <advance width="1199"/>
  <unicode hex="0055"/>
  <anchor x="619.9384615384616" y="1432.0" name="top"/>
  <outline>
    <contour>
      <point x="154.53846153846155" y="480.11261538461537" type="qcurve" smooth="yes"/>
      <point x="154.53846153846155" y="1456.0" type="line"/>
      <point x="233.6646153846154" y="1456.0" type="line"/>
      <point x="233.6646153846154" y="479.8356923076923" type="line" smooth="yes"/>
      <point x="233.6646153846154" y="259.6713846153846"/>
      <point x="439.93210941802835" y="45.56369230769229"/>
      <point x="599.7821538461537" y="45.56369230769229" type="qcurve" smooth="yes"/>
      <point x="759.2181252065355" y="45.56369230769229"/>
      <point x="965.6406153846154" y="259.6713846153846"/>
      <point x="965.6406153846154" y="479.8356923076923" type="qcurve" smooth="yes"/>
      <point x="965.6406153846154" y="1456.0" type="line"/>
      <point x="1044.7667692307691" y="1456.0" type="line"/>
      <point x="1044.7667692307691" y="480.08184615384613" type="line" smooth="yes"/>
      <point x="1044.7667692307691" y="224.80123076923078"/>
      <point x="789.2067692307693" y="-29.692307692307693"/>
      <point x="599.7206153846153" y="-29.692307692307693" type="qcurve" smooth="yes"/>
      <point x="410.35753846153847" y="-29.692307692307693"/>
      <point x="154.53846153846155" y="224.80123076923078"/>
    </contour>
  </outline>
</glyph>
<glyph name="V" format="2">
  <advance width="1125"/>
  <unicode hex="0056"/>
  <outline>
    <contour>
      <point x="2.7200000000000006" y="1456.0" type="line"/>
      <point x="88.53353846153846" y="1456.0" type="line"/>
      <point x="513.524923076923" y="223.4584615384615" type="line" smooth="yes"/>
      <point x="526.6753846153846" y="186.61599999999999"/>
      <point x="550.7876923076923" y="117.32800000000002"/>
      <point x="560.0683076923078" y="81.0166153846154" type="qcurve"/>
      <point x="570.2683076923076" y="81.0166153846154" type="line"/>
      <point x="579.6541538461537" y="117.32799999999999"/>
      <point x="604.1320000000001" y="186.6904615384615"/>
      <point x="617.2079999999999" y="223.58153846153843" type="qcurve" smooth="yes"/>
      <point x="1041.4830769230769" y="1456.0" type="line"/>
      <point x="1122.1015384615384" y="1456.0" type="line"/>
      <point x="609.0196923076923" y="-9.96923076923077" type="line"/>
      <point x="517.2849230769231" y="-9.96923076923077" type="line"/>
    </contour>
  </outline>
</glyph>
<glyph name="W" format="2">
  <advance width="1714"/>
  <unicode hex="0057"/>
  <outline>
    <contour>
      <point x="421.4996923076923" y="-9.938461538461539" type="line"/>
      <point x="51.230769230769226" y="1456.0" type="line"/>
      <point x="133.99384615384614" y="1456.0" type="line"/>
      <point x="440.3030769230769" y="222.3963076923077" type="line" smooth="yes"/>
      <point x="448.7504615384615" y="188.98092307692303"/>
      <point x="455.9670769230769" y="128.6270769230769"/>
      <point x="459.22615384615386" y="95.65784615384614" type="qcurve"/>
      <point x="465.4132307692308" y="95.65784615384614" type="line"/>
      <point x="468.69138461538455" y="128.65784615384615"/>
      <point x="475.36553846153845" y="188.56246153846155"/>
      <point x="484.2116923076923" y="222.00861538461538" type="qcurve" smooth="yes"/>
      <point x="816.4086153846154" y="1456.0" type="line"/>
      <point x="902.1803076923077" y="1456.0" type="line"/>
      <point x="1231.8603076923077" y="222.03938461538462" type="line" smooth="yes"/>
      <point x="1240.7064615384616" y="188.56246153846152"/>
      <point x="1252.0489230769228" y="128.6270769230769"/>
      <point x="1255.1104615384613" y="95.65784615384612" type="qcurve"/>
      <point x="1261.4643076923073" y="95.65784615384612" type="line"/>
      <point x="1264.680923076923" y="128.65784615384615"/>
      <point x="1271.8667692307693" y="188.95015384615382"/>
      <point x="1280.189846153846" y="222.48861538461534" type="qcurve" smooth="yes"/>
      <point x="1584.6436923076924" y="1456.0" type="line"/>
      <point x="1663.742769230769" y="1456.0" type="line"/>
      <point x="1293.2289230769231" y="-9.96923076923077" type="line"/>
      <point x="1219.913230769231" y="-9.96923076923077" type="line"/>
      <point x="882.144" y="1229.9021538461536" type="line" smooth="yes"/>
      <point x="873.2978461538462" y="1263.379076923077"/>
      <point x="862.9156923076923" y="1324.7175384615387"/>
      <point x="859.8233846153846" y="1357.748307692308" type="qcurve"/>
      <point x="854.9464615384616" y="1357.748307692308" type="line"/>
      <point x="851.8233846153846" y="1324.7175384615387"/>
      <point x="841.5027692307692" y="1263.4098461538463"/>
      <point x="832.5206153846154" y="1229.9021538461536" type="qcurve" smooth="yes"/>
      <point x="494.81538461538463" y="-9.938461538461539" type="line"/>
    </contour>
  </outline>
</glyph>
<glyph name="X" format="2">
  <advance width="1158"/>
  <unicode hex="0058"/>
  <outline>
    <contour>
      <point x="28.92615384615385" y="0.0" type="line"/>
      <point x="556.5852307692307" y="772.6726153846154" type="line"/>
      <point x="563.4418461538462" y="772.7956923076923" type="line"/>
      <point x="1010.9015384615385" y="1456.0" type="line"/>
      <point x="1103.9181538461537" y="1456.0" type="line"/>
      <point x="603.4581538461539" y="703.912" type="line"/>
      <point x="596.6015384615384" y="703.7889230769232" type="line"/>
      <point x="121.94276923076923" y="0.0" type="line"/>
    </contour>
    <contour>
      <point x="55.408" y="1456.0" type="line"/>
      <point x="153.39046153846155" y="1456.0" type="line"/>
      <point x="600.1021538461539" y="772.7649230769231" type="line"/>
      <point x="604.2061538461538" y="772.5803076923077" type="line"/>
      <point x="1130.246153846154" y="0.0" type="line"/>
      <point x="1032.096923076923" y="0.0" type="line"/>
      <point x="559.9412307692309" y="703.7889230769231" type="line"/>
      <point x="555.8679999999999" y="703.912" type="line"/>
    </contour>
  </outline>
</glyph>
<glyph name="Y" format="2">
  <advance width="1101"/>
  <unicode hex="0059"/>
  <anchor x="571.8000000000001" y="1432.0" name="top"/>
  <outline>
    <contour>
      <point x="511.2621538461538" y="0.0" type="line"/>
      <point x="511.2621538461538" y="581.7587692307692" type="line"/>
      <point x="16.63692307692308" y="1456.0" type="line"/>
      <point x="109.45538461538462" y="1456.0" type="line"/>
      <point x="488.05907692307693" y="767.0646153846154" type="line" smooth="yes"/>
      <point x="504.8313846153846" y="737.28"/>
      <point x="535.7895384615384" y="678.7876923076924"/>
      <point x="549.0338461538461" y="649.3107692307693" type="qcurve"/>
      <point x="554.8209230769231" y="649.3107692307693" type="line"/>
      <point x="568.0652307692309" y="678.7876923076924"/>
      <point x="597.1618461538461" y="737.2492307692307"/>
      <point x="613.9341538461539" y="767.0646153846154" type="qcurve" smooth="yes"/>
      <point x="994.2221538461538" y="1456.0" type="line"/>
      <point x="1083.4867692307691" y="1456.0" type="line"/>
      <point x="590.3883076923078" y="581.7587692307692" type="line"/>
      <point x="590.3883076923078" y="0.0" type="line"/>
    </contour>
  </outline>
</glyph>
<glyph name="Z" format="2">
  <advance width="1081"/>
  <unicode hex="005A"/>
  <outline>
    <contour>
      <point x="37.36" y="0.0" type="line"/>
      <point x="37.36" y="56.64676923076921" type="line"/>
      <point x="907.6215384615384" y="1381.078153846154" type="line"/>
      <point x="50.299692307692304" y="1381.078153846154" type="line"/>
      <point x="50.299692307692304" y="1456.0" type="line"/>
      <point x="1011.6729230769231" y="1456.0" type="line"/>
      <point x="1011.6729230769231" y="1399.5070769230772" type="line"/>
      <point x="141.31907692307692" y="74.64984615384616" type="line"/>
      <point x="1044.8033846153844" y="74.64984615384616" type="line"/>
      <point x="1044.8033846153844" y="0.0" type="line"/>
    </contour>
  </outline>
</glyph>
<glyph name="bracketleft" format="2">
  <advance width="552"/>
  <unicode hex="005B"/>
  <outline>
    <contour>
      <point x="149.88984615384615" y="-310.0" type="line"/>
      <point x="149.88984615384615" y="1456.0" type="line"/>
      <point x="538.547076923077" y="1456.0" type="line"/>
      <point x="538.547076923077" y="1381.7433846153847" type="line"/>
      <point x="228.51323076923077" y="1381.7433846153847" type="line"/>
      <point x="228.51323076923077" y="-235.74338461538466" type="line"/>
      <point x="538.547076923077" y="-235.74338461538466" type="line"/>
      <point x="538.547076923077" y="-310.0" type="line"/>
    </contour>
  </outline>
</glyph>
<glyph name="backslash" format="2">
  <advance width="523"/>
  <unicode hex="005C"/>
  <outline>
    <contour>
      <point x="-96.872" y="1456.0" type="line"/>
      <point x="-18.05292307692308" y="1456.0" type="line"/>
      <point x="619.0633846153846" y="-125.0" type="line"/>
      <point x="540.0892307692308" y="-125.0" type="line"/>
    </contour>
  </outline>
</glyph>
<glyph name="bracketright" format="2">
  <advance width="552"/>
  <unicode hex="005D"/>
  <outline>
    <contour>
      <point x="401.97784615384614" y="-310.0" type="line"/>
      <point x="13.320615384615396" y="-310.0" type="line"/>
      <point x="13.320615384615396" y="-235.74338461538466" type="line"/>
      <point x="323.3544615384615" y="-235.74338461538466" type="line"/>
      <point x="323.3544615384615" y="1381.7433846153847" type="line"/>
      <point x="13.320615384615396" y="1381.7433846153847" type="line"/>
      <point x="13.320615384615396" y="1456.0" type="line"/>
      <point x="401.97784615384614" y="1456.0" type="line"/>
    </contour>
  </outline>
</glyph>
<glyph name="asciicircum" format="2">
  <advance width="1113"/>
  <unicode hex="005E"/>
  <outline>
    <contour>
      <point x="29.104615384615386" y="720.0" type="line"/>
      <point x="524.56" y="1456.0" type="line"/>
      <point x="588.6449230769233" y="1456.0" type="line"/>
      <point x="1084.1003076923075" y="720.0" type="line"/>
      <point x="991.0436923076924" y="720.0" type="line"/>
      <point x="556.6704615384615" y="1375.3163076923076" type="line"/>
      <point x="122.29723076923078" y="720.0" type="line"/>
    </contour>
  </outline>
</glyph>
<glyph name="underscore" format="2">
  <advance width="957"/>
  <unicode hex="005F"/>
  <outline>
    <contour>
      <point x="0.0" y="-178.4873846153846" type="line"/>
      <point x="0.0" y="-103.71015384615384" type="line"/>
      <point x="957.2461538461538" y="-103.71015384615384" type="line"/>
      <point x="957.2461538461538" y="-178.4873846153846" type="line"/>
    </contour>
  </outline>
</glyph>
<glyph name="grave" format="2">
  <advance width="1024"/>
  <unicode hex="0060"/>
  <anchor x="512.4615384615385" y="1047.753846153846" name="_top"/>
  <outline>
    <contour>
      <point x="633.7643076923076" y="1197.587076923077" type="line"/>
      <point x="337.56676923076924" y="1474.4615384615383" type="line"/>
      <point x="412.97230769230765" y="1525.768" type="line"/>
      <point x="669.8793846153845" y="1224.475076923077" type="line"/>
    </contour>
  </outline>
</glyph>
<glyph name="a" format="2">
  <advance width="959"/>
  <unicode hex="0061"/>
  <anchor x="490.63076923076926" y="1047.753846153846" name="top"/>
  <outline>
    <contour>
      <point x="91.09415384615386" y="287.4990769230769" type="qcurve" smooth="yes"/>
      <point x="91.09415384615386" y="435.57107692307693"/>
      <point x="300.8864615384615" y="608.2824615384616"/>
      <point x="468.08000000000004" y="608.2824615384616" type="qcurve" smooth="yes"/>
      <point x="734.5883076923077" y="608.2824615384616" type="line"/>
      <point x="734.5883076923077" y="717.6615384615385" type="line" smooth="yes"/>
      <point x="734.5883076923077" y="847.5483076923078"/>
      <point x="622.4980326340326" y="1004.8098461538463"/>
      <point x="487.78276923076925" y="1004.8098461538463" type="qcurve" smooth="yes"/>
      <point x="352.00011576542266" y="1004.8098461538463"/>
      <point x="233.66707692307693" y="864.8953846153846"/>
      <point x="233.66707692307693" y="770.2763076923078" type="qcurve" smooth="yes"/>
      <point x="233.66707692307693" y="761.2947692307692" type="line"/>
      <point x="158.87107692307694" y="761.2947692307692" type="line"/>
      <point x="158.87107692307694" y="770.7507692307693" type="line" smooth="yes"/>
      <point x="158.87107692307694" y="896.9735384615383"/>
      <point x="330.7116923076923" y="1077.446153846154"/>
      <point x="491.54830769230773" y="1077.446153846154" type="qcurve" smooth="yes"/>
      <point x="644.5018461538461" y="1077.446153846154"/>
      <point x="812.6104615384615" y="896.9538461538461"/>
      <point x="812.6104615384615" y="718.0" type="qcurve" smooth="yes"/>
      <point x="812.6104615384615" y="240.0" type="line" smooth="yes"/>
      <point x="812.6104615384615" y="174.72307692307692"/>
      <point x="834.1833846153845" y="59.323076923076925"/>
      <point x="853.1883076923076" y="15.6" type="qcurve"/>
      <point x="853.1883076923076" y="0.0" type="line"/>
      <point x="781.552" y="0.0" type="line"/>
      <point x="764.1363076923077" y="29.041846153846155"/>
      <point x="740.9966153846153" y="122.77538461538462"/>
      <point x="737.1858461538461" y="169.20738461538465" type="qcurve"/>
      <point x="698.8285605107964" y="102.6285748178815"/>
      <point x="522.496540337711" y="-19.784615384615385"/>
      <point x="394.5390769230769" y="-19.784615384615385" type="qcurve" smooth="yes"/>
      <point x="258.1612307692307" y="-19.784615384615385"/>
      <point x="91.09415384615386" y="135.952"/>
    </contour>
    <contour>
      <point x="169.11630769230769" y="289.78461538461545" type="qcurve" smooth="yes"/>
      <point x="169.11630769230769" y="173.9956923076923"/>
      <point x="290.7488659793815" y="51.7636923076923"/>
      <point x="413.0104615384615" y="51.7636923076923" type="qcurve" smooth="yes"/>
      <point x="534.5155164835164" y="51.7636923076923"/>
      <point x="734.5883076923077" y="232.2006153846154"/>
      <point x="734.5883076923077" y="336.50461538461536" type="qcurve"/>
      <point x="734.5883076923077" y="539.1126153846154" type="line"/>
      <point x="487.0929230769231" y="539.1126153846154" type="line" smooth="yes"/>
      <point x="331.8672140294938" y="539.1126153846154"/>
      <point x="169.11630769230769" y="403.3230769230769"/>
    </contour>
  </outline>
</glyph>
<glyph name="b" format="2">
  <advance width="1022"/>
  <unicode hex="0062"/>
  <outline>
    <contour>
      <point x="148.5907692307692" y="0.0" type="line"/>
      <point x="148.5907692307692" y="1533.6" type="line"/>
      <point x="226.6129230769231" y="1533.6" type="line"/>
      <point x="226.6129230769231" y="914.2781538461538" type="line"/>
      <point x="275.8215131937829" y="981.3278925411114"/>
      <point x="436.98600981996725" y="1067.753846153846"/>
      <point x="547.9366153846154" y="1067.753846153846" type="qcurve" smooth="yes"/>
      <point x="729.5950769230768" y="1067.753846153846"/>
      <point x="935.5003076923076" y="769.4461538461538"/>
      <point x="935.5003076923076" y="539.8769230769232" type="qcurve" smooth="yes"/>
      <point x="935.5003076923076" y="508.4" type="line" smooth="yes"/>
      <point x="935.5003076923076" y="278.5538461538461"/>
      <point x="729.5643076923076" y="-20.0"/>
      <point x="547.752" y="-20.0" type="qcurve" smooth="yes"/>
      <point x="436.78289863407616" y="-20.0"/>
      <point x="266.3293216600443" y="77.63320221610118"/>
      <point x="222.5809230769231" y="143.47876923076925" type="qcurve"/>
      <point x="220.81784615384618" y="143.47876923076925" type="line"/>
      <point x="218.6086153846154" y="0.0" type="line"/>
    </contour>
    <contour>
      <point x="226.6129230769231" y="240.36553846153848" type="line"/>
      <point x="260.4903001736162" y="165.72390774996717"/>
      <point x="417.3619512195122" y="52.51692307692308"/>
      <point x="529.5526153846154" y="52.51692307692308" type="qcurve" smooth="yes"/>
      <point x="697.0993518156969" y="52.51692307692308"/>
      <point x="856.7421538461539" y="314.85723076923074"/>
      <point x="856.7421538461539" y="508.2153846153846" type="qcurve" smooth="yes"/>
      <point x="856.7421538461539" y="540.0615384615385" type="line" smooth="yes"/>
      <point x="856.7421538461539" y="733.0196923076923"/>
      <point x="697.2224287387738" y="995.2061538461539"/>
      <point x="529.768" y="995.2061538461539" type="qcurve" smooth="yes"/>
      <point x="417.5465666041276" y="995.2061538461539"/>
      <point x="260.8842232991514" y="879.8918021219995"/>
      <point x="226.6129230769231" y="805.2609230769231" type="qcurve"/>
    </contour>
  </outline>
</glyph>
<glyph name="c" format="2">
  <advance width="888"/>
  <unicode hex="0063"/>
  <anchor x="495.46153846153845" y="0" name="bottom"/>
  <outline>
    <contour>
      <point x="86.54276923076922" y="508.24615384615385" type="qcurve" smooth="yes"/>
      <point x="86.54276923076922" y="539.5692307692308" type="line" smooth="yes"/>
      <point x="86.54276923076922" y="777.1692307692307"/>
      <point x="304.5741538461539" y="1077.446153846154"/>
      <point x="496.14338461538455" y="1077.446153846154" type="qcurve" smooth="yes"/>
      <point x="673.1870769230769" y="1077.446153846154"/>
      <point x="850.0861538461537" y="855.3803076923077"/>
      <point x="850.0861538461537" y="711.7692307692307" type="qcurve" smooth="yes"/>
      <point x="850.0861538461537" y="706.2461538461538" type="line"/>
      <point x="776.3089230769232" y="706.2461538461538" type="line"/>
      <point x="776.3089230769232" y="711.7692307692307" type="line" smooth="yes"/>
      <point x="776.3089230769232" y="827.6449230769232"/>
      <point x="643.1643971695959" y="1004.9292307692308"/>
      <point x="496.11261538461537" y="1004.9292307692308" type="qcurve" smooth="yes"/>
      <point x="327.5502363046383" y="1004.9292307692308"/>
      <point x="165.33169230769232" y="735.7735384615386"/>
      <point x="165.33169230769232" y="539.9076923076923" type="qcurve" smooth="yes"/>
      <point x="165.33169230769232" y="507.75384615384615" type="line" smooth="yes"/>
      <point x="165.33169230769232" y="311.79569230769226"/>
      <point x="327.70408245848444" y="42.824615384615385"/>
      <point x="496.2664615384616" y="42.824615384615385" type="qcurve" smooth="yes"/>
      <point x="643.1951664003651" y="42.824615384615385"/>
      <point x="776.4935384615385" y="219.8935384615385"/>
      <point x="776.4935384615385" y="335.9230769230769" type="qcurve" smooth="yes"/>
      <point x="776.4935384615385" y="341.3846153846154" type="line"/>
      <point x="850.2707692307691" y="341.3846153846154" type="line"/>
      <point x="850.2707692307691" y="335.9230769230769" type="line" smooth="yes"/>
      <point x="850.2707692307691" y="192.25046153846154"/>
      <point x="673.1870769230769" y="-29.692307692307693"/>
      <point x="496.26646153846156" y="-29.692307692307693" type="qcurve" smooth="yes"/>
      <point x="304.6664615384615" y="-29.692307692307693"/>
      <point x="86.54276923076922" y="270.4615384615385"/>
    </contour>
  </outline>
</glyph>
<glyph name="d" format="2">
  <advance width="1022"/>
  <unicode hex="0064"/>
  <outline>
    <contour>
      <point x="86.54276923076922" y="508.4" type="qcurve" smooth="yes"/>
      <point x="86.54276923076922" y="539.9076923076923" type="line" smooth="yes"/>
      <point x="86.54276923076922" y="769.4153846153846"/>
      <point x="290.9212307692308" y="1067.753846153846"/>
      <point x="472.6104615384615" y="1067.753846153846" type="qcurve" smooth="yes"/>
      <point x="583.4624615384616" y="1067.753846153846"/>
      <point x="744.6415384615384" y="982.8935384615385"/>
      <point x="795.4301538461539" y="915.6073846153846" type="qcurve"/>
      <point x="795.4301538461539" y="1533.6" type="line"/>
      <point x="873.4523076923075" y="1533.6" type="line"/>
      <point x="873.4523076923075" y="0.0" type="line"/>
      <point x="803.4344615384615" y="0.0" type="line"/>
      <point x="801.2252307692307" y="143.7556923076923" type="line"/>
      <point x="798.7513846153845" y="142.5316923076923" type="line"/>
      <point x="753.8107692307692" y="77.50215384615385"/>
      <point x="582.2064615384616" y="-19.692307692307693"/>
      <point x="471.43507692307685" y="-19.692307692307693" type="qcurve" smooth="yes"/>
      <point x="289.6227692307693" y="-19.692307692307693"/>
      <point x="86.54276923076922" y="278.8"/>
    </contour>
    <contour>
      <point x="165.3009230769231" y="508.18461538461537" type="line" smooth="yes"/>
      <point x="165.3009230769231" y="315.16492307692306"/>
      <point x="320.352" y="52.824615384615385"/>
      <point x="487.86646153846146" y="52.824615384615385" type="qcurve" smooth="yes"/>
      <point x="600.2406153846152" y="52.824615384615385"/>
      <point x="760.5267692307692" y="166.89230769230767"/>
      <point x="795.4301538461539" y="240.26523076923078" type="qcurve"/>
      <point x="795.4301538461539" y="806.6209230769231" type="line"/>
      <point x="760.6818461538461" y="881.3667692307693"/>
      <point x="601.6879999999999" y="995.2061538461539"/>
      <point x="489.2830769230769" y="995.2061538461539" type="qcurve" smooth="yes"/>
      <point x="321.86092307692303" y="995.2061538461539"/>
      <point x="165.3009230769231" y="733.0196923076924"/>
      <point x="165.3009230769231" y="540.0615384615385" type="qcurve" smooth="yes"/>
    </contour>
  </outline>
</glyph>
<glyph name="e" format="2">
  <advance width="911"/>
  <unicode hex="0065"/>
  <anchor x="487.8307692307692" y="1048.7230769230769" name="top"/>
  <outline>
    <contour>
      <point x="86.54276923076922" y="508.24615384615385" type="qcurve" smooth="yes"/>
      <point x="86.54276923076922" y="539.5692307692308" type="line" smooth="yes"/>
      <point x="86.54276923076922" y="776.9538461538461"/>
      <point x="304.35415384615385" y="1077.446153846154"/>
      <point x="485.5021538461538" y="1077.446153846154" type="qcurve" smooth="yes"/>
      <point x="663.4796923076923" y="1077.446153846154"/>
      <point x="852.6947692307692" y="797.5076923076923"/>
      <point x="852.6947692307692" y="560.276923076923" type="qcurve" smooth="yes"/>
      <point x="852.6947692307692" y="522.076923076923" type="line"/>
      <point x="126.316" y="522.076923076923" type="line"/>
      <point x="126.044" y="593.2590769230769" type="line"/>
      <point x="774.4399999999999" y="593.2590769230769" type="line"/>
      <point x="774.4399999999999" y="603.5360000000001" type="line"/>
      <point x="774.5759999999999" y="764.5390769230769"/>
      <point x="644.9562830769231" y="1004.9292307692308"/>
      <point x="484.41415384615385" y="1004.9292307692308" type="qcurve" smooth="yes"/>
      <point x="328.1629582756575" y="1004.9292307692308"/>
      <point x="164.4203076923077" y="737.3021538461539"/>
      <point x="164.4203076923077" y="539.9076923076923" type="qcurve" smooth="yes"/>
      <point x="164.4203076923077" y="507.9076923076923" type="line" smooth="yes"/>
      <point x="164.4203076923077" y="310.51323076923074"/>
      <point x="336.15021109123427" y="42.824615384615385"/>
      <point x="516.8646153846154" y="42.824615384615385" type="qcurve" smooth="yes"/>
      <point x="611.6541961244861" y="42.824615384615385"/>
      <point x="744.9710769230769" y="119.78953846153843"/>
      <point x="793.3076923076924" y="184.18646153846154" type="qcurve"/>
      <point x="847.024" y="134.9409230769231" type="line"/>
      <point x="801.804923076923" y="71.31507692307692"/>
      <point x="637.4147692307693" y="-29.692307692307693"/>
      <point x="516.8030769230769" y="-29.692307692307693" type="qcurve" smooth="yes"/>
      <point x="308.3046153846154" y="-29.692307692307693"/>
      <point x="86.54276923076922" y="270.8"/>
    </contour>
  </outline>
</glyph>
<glyph name="f" format="2">
  <advance width="531"/>
  <unicode hex="0066"/>
  <outline>
    <contour>
      <point x="211.92369230769228" y="0.0" type="line"/>
      <point x="211.92369230769228" y="1191.2756923076922" type="line" smooth="yes"/>
      <point x="211.92369230769228" y="1368.8823025064823"/>
      <point x="362.82673404765717" y="1553.6"/>
      <point x="493.3446153846154" y="1553.6" type="qcurve" smooth="yes"/>
      <point x="524.2135384615384" y="1553.6"/>
      <point x="586.2695384615384" y="1544.115076923077"/>
      <point x="613.012923076923" y="1537.6923076923076" type="qcurve"/>
      <point x="602.472" y="1469.3630769230772" type="line"/>
      <point x="582.7298461538462" y="1474.022153846154"/>
      <point x="526.1741538461538" y="1483.1895384615384"/>
      <point x="498.35138461538463" y="1483.1895384615384" type="qcurve" smooth="yes"/>
      <point x="398.57833846153846" y="1483.1895384615384"/>
      <point x="289.94584615384616" y="1337.4787692307693"/>
      <point x="289.94584615384616" y="1190.9679999999998" type="qcurve" smooth="yes"/>
      <point x="289.94584615384616" y="1018.9987692307693" type="line"/>
      <point x="289.94584615384616" y="1006.4443076923077" type="line"/>
      <point x="289.94584615384616" y="0.0" type="line"/>
    </contour>
    <contour>
      <point x="24.446153846153845" y="977.5224615384616" type="line"/>
      <point x="24.446153846153845" y="1047.753846153846" type="line"/>
      <point x="240.47692307692307" y="1047.753846153846" type="line"/>
      <point x="260.80307692307696" y="1047.753846153846" type="line"/>
      <point x="539.0547692307692" y="1047.753846153846" type="line"/>
      <point x="539.0547692307692" y="977.5224615384616" type="line"/>
    </contour>
  </outline>
</glyph>
<glyph name="g" format="2">
  <advance width="1022"/>
  <unicode hex="0067"/>
  <outline>
    <contour>
      <point x="122.928" y="-321.83876923076923" type="qcurve"/>
      <point x="171.49107692307692" y="-254.29907692307697" type="line"/>
      <point x="216.3916923076923" y="-298.5138461538462"/>
      <point x="376.20030769230766" y="-359.52984615384617"/>
      <point x="469.89723076923076" y="-359.52984615384617" type="qcurve" smooth="yes"/>
      <point x="618.2315123661149" y="-359.52984615384617"/>
      <point x="795.4301538461539" y="-160.98030769230772"/>
      <point x="795.4301538461539" y="20.307692307692307" type="qcurve" smooth="yes"/>
      <point x="795.4301538461539" y="132.20800000000003" type="line"/>
      <point x="744.5233846153847" y="65.39138461538461"/>
      <point x="581.1246153846154" y="-20.0"/>
      <point x="470.07507692307684" y="-20.0" type="qcurve" smooth="yes"/>
      <point x="288.26276923076927" y="-20.0"/>
      <point x="86.54276923076922" y="278.5230769230769"/>
      <point x="86.54276923076922" y="508.4" type="qcurve" smooth="yes"/>
      <point x="86.54276923076922" y="539.876923076923" type="line" smooth="yes"/>
      <point x="86.54276923076922" y="769.4153846153846"/>
      <point x="289.5612307692308" y="1067.753846153846"/>
      <point x="471.2504615384615" y="1067.753846153846" type="qcurve" smooth="yes"/>
      <point x="584.1233846153845" y="1067.753846153846"/>
      <point x="756.1972307692307" y="970.1384615384616"/>
      <point x="799.4313846153846" y="903.0073846153847" type="qcurve"/>
      <point x="801.3612307692307" y="903.0073846153847" type="line"/>
      <point x="803.4344615384615" y="1047.753846153846" type="line"/>
      <point x="873.4523076923075" y="1047.753846153846" type="line"/>
      <point x="873.4523076923075" y="20.307692307692307" type="line" smooth="yes"/>
      <point x="873.4523076923075" y="-199.96923076923076"/>
      <point x="649.5264615384614" y="-435.69230769230774"/>
      <point x="472.0424615384615" y="-435.69230769230774" type="qcurve" smooth="yes"/>
      <point x="365.2449230769231" y="-435.69230769230774"/>
      <point x="186.28184615384617" y="-372.6073846153846"/>
    </contour>
    <contour>
      <point x="165.3009230769231" y="508.18461538461537" type="line" smooth="yes"/>
      <point x="165.3009230769231" y="314.85723076923074"/>
      <point x="320.624" y="52.51692307692308"/>
      <point x="488.1384615384615" y="52.51692307692308" type="qcurve" smooth="yes"/>
      <point x="600.5126153846153" y="52.51692307692308"/>
      <point x="759.8658461538462" y="167.9446153846154"/>
      <point x="795.4301538461539" y="241.31753846153848" type="qcurve"/>
      <point x="795.4301538461539" y="806.6209230769231" type="line"/>
      <point x="760.5267692307692" y="880.8227692307694"/>
      <point x="601.824" y="995.2061538461539"/>
      <point x="489.4190769230769" y="995.2061538461539" type="qcurve" smooth="yes"/>
      <point x="323.49292307692303" y="995.2061538461539"/>
      <point x="165.3009230769231" y="733.0196923076924"/>
      <point x="165.3009230769231" y="540.0615384615385" type="qcurve" smooth="yes"/>
    </contour>
  </outline>
</glyph>
<glyph name="h" format="2">
  <advance width="990"/>
  <unicode hex="0068"/>
  <outline>
    <contour>
      <point x="148.5907692307692" y="0.0" type="line"/>
      <point x="148.5907692307692" y="1533.476923076923" type="line"/>
      <point x="226.6129230769231" y="1533.476923076923" type="line"/>
      <point x="226.6129230769231" y="902.2221538461539" type="line"/>
      <point x="280.28092307692305" y="975.68"/>
      <point x="440.284" y="1067.753846153846"/>
      <point x="547.1824615384616" y="1067.753846153846" type="qcurve" smooth="yes"/>
      <point x="684.097846153846" y="1067.753846153846"/>
      <point x="850.592" y="913.275076923077"/>
      <point x="850.592" y="732.6233846153846" type="qcurve" smooth="yes"/>
      <point x="850.592" y="0.0" type="line"/>
      <point x="772.6750769230769" y="0.0" type="line"/>
      <point x="772.6750769230769" y="734.4387692307693" type="line" smooth="yes"/>
      <point x="772.6750769230769" y="873.5329230769232"/>
      <point x="641.428923076923" y="994.2683076923079"/>
      <point x="528.0996923076924" y="994.2683076923079" type="qcurve" smooth="yes"/>
      <point x="424.1716923076923" y="994.2683076923079"/>
      <point x="271.1996923076923" y="884.5390769230769"/>
      <point x="226.6129230769231" y="803.9316923076922" type="qcurve"/>
      <point x="226.6129230769231" y="0.0" type="line"/>
    </contour>
  </outline>
</glyph>
<glyph name="i" format="2">
  <advance width="398"/>
  <unicode hex="0069"/>
  <outline>
    <contour>
      <point x="159.89784615384616" y="0.0" type="line"/>
      <point x="159.89784615384616" y="1047.753846153846" type="line"/>
      <point x="237.92000000000002" y="1047.753846153846" type="line"/>
      <point x="237.92000000000002" y="0.0" type="line"/>
    </contour>
    <contour>
      <point x="143.77538461538464" y="1397.6221538461539" type="qcurve" smooth="yes"/>
      <point x="143.77538461538464" y="1427.9883076923077"/>
      <point x="172.52615384615385" y="1469.32"/>
      <point x="198.93969230769233" y="1469.32" type="qcurve" smooth="yes"/>
      <point x="225.35323076923078" y="1469.32"/>
      <point x="254.07323076923075" y="1427.9883076923077"/>
      <point x="254.07323076923075" y="1397.6221538461539" type="qcurve" smooth="yes"/>
      <point x="254.07323076923075" y="1367.2252307692306"/>
      <point x="225.32246153846154" y="1325.8935384615384"/>
      <point x="198.9089230769231" y="1325.8935384615384" type="qcurve" smooth="yes"/>
      <point x="172.49538461538464" y="1325.8935384615384"/>
      <point x="143.77538461538464" y="1367.2252307692306"/>
    </contour>
  </outline>
</glyph>
<glyph name="j" format="2">
  <advance width="398"/>
  <unicode hex="006A"/>
  <outline>
    <contour>
      <point x="-109.58707692307692" y="-414.6086153846153" type="qcurve"/>
      <point x="-109.58707692307692" y="-339.8886153846154" type="line"/>
      <point x="-91.28307692307692" y="-345.39630769230763"/>
      <point x="-27.82615384615384" y="-358.4344615384615"/>
      <point x="-0.49169230769230055" y="-358.4344615384615" type="qcurve" smooth="yes"/>
      <point x="75.16123076923078" y="-358.4344615384615"/>
      <point x="160.4695384615385" y="-252.98227692307697"/>
      <point x="160.4695384615385" y="-132.15384615384616" type="qcurve" smooth="yes"/>
      <point x="160.4695384615385" y="1047.753846153846" type="line"/>
      <point x="238.4916923076923" y="1047.753846153846" type="line"/>
      <point x="238.4916923076923" y="-93.6923076923077" type="line" smooth="yes"/>
      <point x="238.4916923076923" y="-271.5076923076923"/>
      <point x="120.05833198380567" y="-436.0"/>
      <point x="11.015384615384624" y="-436.0" type="qcurve" smooth="yes"/>
      <point x="-20.053363949483337" y="-436.0"/>
      <point x="-91.7484203448577" y="-421.41927499691167"/>
    </contour>
    <contour>
      <point x="144.37784615384615" y="1397.6221538461539" type="qcurve" smooth="yes"/>
      <point x="144.37784615384615" y="1427.9883076923077"/>
      <point x="173.12861538461536" y="1469.32"/>
      <point x="199.54215384615384" y="1469.32" type="qcurve" smooth="yes"/>
      <point x="225.95569230769232" y="1469.32"/>
      <point x="254.67569230769226" y="1427.9883076923077"/>
      <point x="254.67569230769226" y="1397.6221538461539" type="qcurve" smooth="yes"/>
      <point x="254.67569230769226" y="1367.2252307692306"/>
      <point x="225.92492307692308" y="1325.8935384615384"/>
      <point x="199.5113846153846" y="1325.8935384615384" type="qcurve" smooth="yes"/>
      <point x="173.09784615384615" y="1325.8935384615384"/>
      <point x="144.37784615384615" y="1367.2252307692306"/>
    </contour>
  </outline>
</glyph>
<glyph name="k" format="2">
  <advance width="904"/>
  <unicode hex="006B"/>
  <outline>
    <contour>
      <point x="148.5907692307692" y="0.0" type="line"/>
      <point x="148.5907692307692" y="1533.6" type="line"/>
      <point x="226.6129230769231" y="1533.6" type="line"/>
      <point x="226.6129230769231" y="523.4726153846154" type="line"/>
      <point x="760.8689230769231" y="1047.753846153846" type="line"/>
      <point x="861.3953846153847" y="1047.753846153846" type="line"/>
      <point x="226.30276923076926" y="427.6947692307693" type="line"/>
      <point x="226.30276923076926" y="0.0" type="line"/>
    </contour>
    <contour>
      <point x="813.3581538461538" y="0.0" type="line"/>
      <point x="345.9630769230769" y="585.9809230769231" type="line"/>
      <point x="401.95723076923076" y="645.9815384615384" type="line"/>
      <point x="916.2338461538462" y="0.0" type="line"/>
    </contour>
  </outline>
</glyph>
<glyph name="l" format="2">
  <advance width="396"/>
  <unicode hex="006C"/>
  <outline>
    <contour>
      <point x="159.02092307692305" y="0.0" type="line"/>
      <point x="159.02092307692305" y="1533.6" type="line"/>
      <point x="237.0430769230769" y="1533.6" type="line"/>
      <point x="237.0430769230769" y="0.0" type="line"/>
    </contour>
  </outline>
</glyph>
<glyph name="m" format="2">
  <advance width="1564"/>
  <unicode hex="006D"/>
  <outline>
    <contour>
      <point x="148.5907692307692" y="0.0" type="line"/>
      <point x="148.5907692307692" y="1047.753846153846" type="line"/>
      <point x="218.6086153846154" y="1047.753846153846" type="line"/>
      <point x="220.68184615384618" y="900.6916923076924" type="line"/>
      <point x="222.5809230769231" y="900.6916923076924" type="line"/>
      <point x="276.2055384615384" y="977.4116923076922"/>
      <point x="433.6950769230769" y="1067.7846153846153"/>
      <point x="533.9166153846154" y="1067.753846153846" type="qcurve" smooth="yes"/>
      <point x="634.6107692307693" y="1067.7230769230769"/>
      <point x="777.0544615384615" y="977.4744615384615"/>
      <point x="805.3372307692307" y="889.7618461538461" type="qcurve"/>
      <point x="807.2861538461539" y="889.7618461538461" type="line"/>
      <point x="864.9051054786265" y="977.0987612616824"/>
      <point x="1027.8276923076921" y="1067.753846153846"/>
      <point x="1129.618153846154" y="1067.753846153846" type="qcurve" smooth="yes"/>
      <point x="1264.5770822281168" y="1067.753846153846"/>
      <point x="1425.9569230769227" y="913.6781538461538"/>
      <point x="1425.9569230769227" y="734.1501538461538" type="qcurve" smooth="yes"/>
      <point x="1425.9569230769227" y="0.0" type="line"/>
      <point x="1347.934769230769" y="0.0" type="line"/>
      <point x="1347.934769230769" y="735.9347692307691" type="line" smooth="yes"/>
      <point x="1347.4695384615384" y="873.9975384615384"/>
      <point x="1223.561846153846" y="994.2683076923079"/>
      <point x="1111.6141538461538" y="994.2683076923079" type="qcurve" smooth="yes"/>
      <point x="1014.6787692307691" y="994.2683076923079"/>
      <point x="870.008923076923" y="887.2123076923076"/>
      <point x="826.2849230769231" y="806.2129230769231" type="qcurve"/>
      <point x="826.2849230769231" y="0.0" type="line"/>
      <point x="748.2627692307692" y="0.0" type="line"/>
      <point x="748.2627692307692" y="737.4116923076922" type="line" smooth="yes"/>
      <point x="747.7975384615386" y="874.5513846153847"/>
      <point x="624.0129230769231" y="994.2683076923079"/>
      <point x="512.2498461538462" y="994.2683076923079" type="qcurve" smooth="yes"/>
      <point x="415.24" y="994.2683076923079"/>
      <point x="270.98307692307696" y="887.8276923076922"/>
      <point x="226.6129230769231" y="806.2129230769231" type="qcurve"/>
      <point x="226.6129230769231" y="0.0" type="line"/>
    </contour>
  </outline>
</glyph>
<glyph name="n" format="2">
  <advance width="990"/>
  <unicode hex="006E"/>
  <anchor x="525.8307692307692" y="1047.753846153846" name="top"/>
  <outline>
    <contour>
      <point x="148.5907692307692" y="0.0" type="line"/>
      <point x="148.5907692307692" y="1047.753846153846" type="line"/>
      <point x="218.6086153846154" y="1047.753846153846" type="line"/>
      <point x="220.81784615384618" y="899.7833846153845" type="line"/>
      <point x="222.44492307692312" y="899.7833846153845" type="line"/>
      <point x="277.0630769230769" y="977.5858461538461"/>
      <point x="443.2990663615561" y="1067.753846153846"/>
      <point x="547.3184615384616" y="1067.753846153846" type="qcurve" smooth="yes"/>
      <point x="685.7298461538461" y="1067.753846153846"/>
      <point x="850.592" y="913.303290663535"/>
      <point x="850.592" y="732.6233846153846" type="qcurve" smooth="yes"/>
      <point x="850.592" y="0.0" type="line"/>
      <point x="772.6750769230769" y="0.0" type="line"/>
      <point x="772.6750769230769" y="734.4387692307693" type="line" smooth="yes"/>
      <point x="772.6750769230769" y="873.6165656301146"/>
      <point x="642.7926028683181" y="994.2683076923079"/>
      <point x="524.2916923076924" y="994.2683076923079" type="qcurve" smooth="yes"/>
      <point x="423.41070562956594" y="994.2683076923079"/>
      <point x="271.5631230753919" y="887.8333043334093"/>
      <point x="226.6129230769231" y="805.2916923076922" type="qcurve"/>
      <point x="226.6129230769231" y="0.0" type="line"/>
    </contour>
  </outline>
</glyph>
<glyph name="o" format="2">
  <advance width="1015"/>
  <unicode hex="006F"/>
  <anchor x="509.5230769230769" y="1047.753846153846" name="top"/>
  <outline>
    <contour>
      <point x="86.54276923076922" y="508.24615384615385" type="qcurve" smooth="yes"/>
      <point x="86.54276923076922" y="539.5692307692308" type="line" smooth="yes"/>
      <point x="86.54276923076922" y="777.0461538461539"/>
      <point x="315.62584615384617" y="1077.446153846154"/>
      <point x="507.58461538461535" y="1077.446153846154" type="qcurve" smooth="yes"/>
      <point x="699.6664615384616" y="1077.446153846154"/>
      <point x="928.688" y="777.0153846153846"/>
      <point x="928.688" y="539.5384615384615" type="qcurve" smooth="yes"/>
      <point x="928.688" y="508.24615384615385" type="line" smooth="yes"/>
      <point x="928.688" y="270.7076923076923"/>
      <point x="699.328" y="-29.692307692307693"/>
      <point x="507.6153846153846" y="-29.692307692307693" type="qcurve" smooth="yes"/>
      <point x="315.90276923076925" y="-29.692307692307693"/>
      <point x="86.54276923076922" y="270.8"/>
    </contour>
    <contour>
      <point x="165.33169230769232" y="539.9076923076923" type="qcurve" smooth="yes"/>
      <point x="165.33169230769232" y="507.75384615384615" type="line" smooth="yes"/>
      <point x="165.33169230769232" y="308.0233846153846"/>
      <point x="339.8215384615384" y="42.82461538461538"/>
      <point x="507.61538461538464" y="42.82461538461538" type="qcurve" smooth="yes"/>
      <point x="675.4707692307693" y="42.82461538461538"/>
      <point x="849.9606153846154" y="307.99261538461536"/>
      <point x="849.9606153846154" y="507.7846153846154" type="qcurve" smooth="yes"/>
      <point x="849.9606153846154" y="539.9076923076923" type="line" smooth="yes"/>
      <point x="849.9606153846154" y="738.3704615384615"/>
      <point x="675.8092307692309" y="1004.9292307692309"/>
      <point x="507.5846153846154" y="1004.9292307692309" type="qcurve" smooth="yes"/>
      <point x="339.4830769230769" y="1004.9292307692309"/>
      <point x="165.33169230769232" y="738.3704615384615"/>
    </contour>
  </outline>
</glyph>
<glyph name="p" format="2">
  <advance width="1022"/>
  <unicode hex="0070"/>
  <outline>
    <contour>
      <point x="147.23076923076923" y="-416.8615384615385" type="line"/>
      <point x="147.23076923076923" y="1047.753846153846" type="line"/>
      <point x="217.24861538461542" y="1047.753846153846" type="line"/>
      <point x="219.4578461538462" y="904.4289230769231" type="line"/>
      <point x="221.25169230769234" y="904.4289230769231" type="line"/>
      <point x="265.1658461538462" y="970.2744615384615"/>
      <point x="437.10369230769226" y="1067.753846153846"/>
      <point x="547.9366153846154" y="1067.753846153846" type="qcurve" smooth="yes"/>
      <point x="729.5950769230768" y="1067.753846153846"/>
      <point x="935.5003076923076" y="769.4461538461538"/>
      <point x="935.5003076923076" y="539.876923076923" type="qcurve" smooth="yes"/>
      <point x="935.5003076923076" y="508.40000000000003" type="line" smooth="yes"/>
      <point x="935.5003076923076" y="278.55384615384617"/>
      <point x="729.5950769230768" y="-20.0"/>
      <point x="547.7212307692308" y="-20.0" type="qcurve" smooth="yes"/>
      <point x="436.7332307692308" y="-20.0"/>
      <point x="275.6156923076923" y="64.84738461538461"/>
      <point x="225.25292307692308" y="130.848" type="qcurve"/>
      <point x="225.25292307692308" y="-416.8615384615385" type="line"/>
    </contour>
    <contour>
      <point x="225.25292307692308" y="239.95753846153846" type="line"/>
      <point x="259.8652307692307" y="166.58461538461538"/>
      <point x="417.2836923076923" y="52.51692307692308"/>
      <point x="529.5526153846154" y="52.51692307692308" type="qcurve" smooth="yes"/>
      <point x="697.0670769230769" y="52.51692307692308"/>
      <point x="856.7421538461539" y="314.888"/>
      <point x="856.7421538461539" y="508.21538461538466" type="qcurve" smooth="yes"/>
      <point x="856.7421538461539" y="540.0615384615385" type="line" smooth="yes"/>
      <point x="856.7421538461539" y="733.0196923076923"/>
      <point x="697.1901538461539" y="995.2061538461539"/>
      <point x="529.768" y="995.2061538461539" type="qcurve" smooth="yes"/>
      <point x="417.499076923077" y="995.2061538461539"/>
      <point x="260.15630769230773" y="881.2307692307693"/>
      <point x="225.25292307692308" y="807.9809230769231" type="qcurve"/>
    </contour>
  </outline>
</glyph>
<glyph name="q" format="2">
  <advance width="1022"/>
  <unicode hex="0071"/>
  <outline>
    <contour>
      <point x="86.54276923076922" y="508.4" type="qcurve" smooth="yes"/>
      <point x="86.54276923076922" y="539.9076923076923" type="line" smooth="yes"/>
      <point x="86.54276923076922" y="769.4153846153846"/>
      <point x="288.2787692307692" y="1067.753846153846"/>
      <point x="470.0455384615384" y="1067.753846153846" type="qcurve" smooth="yes"/>
      <point x="580.8978461538461" y="1067.753846153846"/>
      <point x="755.0707692307693" y="970.507076923077"/>
      <point x="798.7636923076923" y="904.1735384615386" type="qcurve"/>
      <point x="801.2633846153846" y="904.1735384615386" type="line"/>
      <point x="802.9298461538461" y="1047.753846153846" type="line"/>
      <point x="873.5679999999999" y="1047.753846153846" type="line"/>
      <point x="873.5679999999999" y="-416.8615384615385" type="line"/>
      <point x="794.8867692307692" y="-416.8615384615385" type="line"/>
      <point x="794.8867692307692" y="131.34953846153846" type="line"/>
      <point x="794.8867692307692" y="131.34953846153846" type="line"/>
      <point x="744.3655384615384" y="65.07753846153847"/>
      <point x="581.020923076923" y="-19.692307692307693"/>
      <point x="470.2301538461538" y="-19.692307692307693" type="qcurve" smooth="yes"/>
      <point x="288.3403076923077" y="-19.692307692307693"/>
      <point x="86.54276923076922" y="278.8"/>
    </contour>
    <contour>
      <point x="165.3009230769231" y="508.18461538461537" type="line" smooth="yes"/>
      <point x="165.3009230769231" y="315.16492307692306"/>
      <point x="320.624" y="52.824615384615385"/>
      <point x="488.1384615384615" y="52.824615384615385" type="qcurve" smooth="yes"/>
      <point x="600.5126153846153" y="52.824615384615385"/>
      <point x="760.4098461538462" y="166.89230769230767"/>
      <point x="795.1581538461538" y="240.26523076923078" type="qcurve"/>
      <point x="795.1581538461538" y="807.9809230769231" type="line"/>
      <point x="760.2547692307693" y="881.2307692307693"/>
      <point x="600.328" y="995.2061538461539"/>
      <point x="487.9230769230769" y="995.2061538461539" type="qcurve" smooth="yes"/>
      <point x="320.5009230769231" y="995.2061538461539"/>
      <point x="165.3009230769231" y="733.0196923076924"/>
      <point x="165.3009230769231" y="540.0615384615385" type="qcurve" smooth="yes"/>
    </contour>
  </outline>
</glyph>
<glyph name="r" format="2">
  <advance width="629"/>
  <unicode hex="0072"/>
  <outline>
    <contour>
      <point x="148.5907692307692" y="0.0" type="line"/>
      <point x="148.5907692307692" y="1047.753846153846" type="line"/>
      <point x="218.6086153846154" y="1047.753846153846" type="line"/>
      <point x="220.68184615384618" y="904.2627692307693" type="line"/>
      <point x="222.61169230769235" y="904.2627692307693" type="line"/>
      <point x="267.329466766383" y="973.4164692644184"/>
      <point x="412.6010686424058" y="1077.446153846154"/>
      <point x="512.7427692307692" y="1077.446153846154" type="qcurve" smooth="yes"/>
      <point x="536.6553846153845" y="1077.446153846154"/>
      <point x="588.1126153846154" y="1067.3846153846152"/>
      <point x="598.7636923076923" y="1063.353846153846" type="qcurve"/>
      <point x="598.7636923076923" y="987.7199999999999" type="line"/>
      <point x="577.6959999999999" y="991.7507692307693"/>
      <point x="530.4375384615385" y="998.9052307692307"/>
      <point x="502.5852307692307" y="998.9052307692307" type="qcurve" smooth="yes"/>
      <point x="409.79864615384616" y="998.9052307692307"/>
      <point x="263.92981089343243" y="886.9578212513094"/>
      <point x="226.6436923076923" y="805.6787692307693" type="qcurve"/>
      <point x="226.6436923076923" y="0.0" type="line"/>
    </contour>
  </outline>
</glyph>
<glyph name="s" format="2">
  <advance width="862"/>
  <unicode hex="0073"/>
  <outline>
    <contour>
      <point x="80.816" y="308.95384615384614" type="line"/>
      <point x="158.83815384615383" y="308.95384615384614" type="line"/>
      <point x="158.83815384615383" y="303.4" type="line" smooth="yes"/>
      <point x="158.83815384615383" y="171.20923076923077"/>
      <point x="310.23919184430025" y="42.85538461538461"/>
      <point x="435.3027692307693" y="42.824615384615385" type="qcurve" smooth="yes"/>
      <point x="560.4775732946299" y="42.793846153846154"/>
      <point x="700.6646153846154" y="165.75507692307693"/>
      <point x="700.6646153846154" y="263.5070769230769" type="qcurve" smooth="yes"/>
      <point x="700.6646153846154" y="364.0313846153847"/>
      <point x="583.9363076923077" y="465.432"/>
      <point x="429.32399999999996" y="505.7716923076923" type="qcurve" smooth="yes"/>
      <point x="274.76030769230766" y="546.0498461538461"/>
      <point x="114.6843076923077" y="688.0972307692308"/>
      <point x="114.6843076923077" y="802.8190769230769" type="qcurve" smooth="yes"/>
      <point x="114.6843076923077" y="924.5544615384615"/>
      <point x="291.58400000000006" y="1077.446153846154"/>
      <point x="436.50892307692305" y="1077.446153846154" type="qcurve" smooth="yes"/>
      <point x="582.2126153846154" y="1077.446153846154"/>
      <point x="759.599076923077" y="903.2646153846152"/>
      <point x="759.8144615384616" y="756.7661538461538" type="qcurve" smooth="yes"/>
      <point x="759.8144615384616" y="751.3046153846153" type="line"/>
      <point x="682.0443076923077" y="751.3046153846153" type="line"/>
      <point x="682.0443076923077" y="756.0683076923077" type="line" smooth="yes"/>
      <point x="682.0443076923077" y="873.779076923077"/>
      <point x="553.952286617492" y="1004.9292307692308"/>
      <point x="436.4781538461539" y="1004.9292307692308" type="qcurve" smooth="yes"/>
      <point x="318.982516988312" y="1004.9292307692308"/>
      <point x="192.5323076923077" y="898.6621538461538"/>
      <point x="192.5323076923077" y="812.5113846153846" type="qcurve" smooth="yes"/>
      <point x="192.5323076923077" y="725.5760000000001"/>
      <point x="308.6821538461538" y="619.7649230769231"/>
      <point x="463.1843076923077" y="579.5175384615385" type="qcurve" smooth="yes"/>
      <point x="617.9018461538462" y="539.2086153846153"/>
      <point x="778.9587692307692" y="401.19692307692304"/>
      <point x="778.9587692307692" y="273.19938461538464" type="qcurve" smooth="yes"/>
      <point x="778.9587692307692" y="141.27015384615382"/>
      <point x="607.9769230769231" y="-29.692307692307693"/>
      <point x="435.30276923076923" y="-29.692307692307693" type="qcurve" smooth="yes"/>
      <point x="262.46061538461544" y="-29.692307692307693"/>
      <point x="80.816" y="149.55076923076925"/>
      <point x="80.816" y="303.4" type="qcurve" smooth="yes"/>
    </contour>
  </outline>
</glyph>
<glyph name="t" format="2">
  <advance width="584"/>
  <unicode hex="0074"/>
  <outline>
    <contour>
      <point x="2.2990769230769232" y="977.5224615384616" type="line"/>
      <point x="2.2990769230769232" y="1047.753846153846" type="line"/>
      <point x="533.1901538461539" y="1047.753846153846" type="line"/>
      <point x="533.1901538461539" y="977.5224615384616" type="line"/>
    </contour>
    <contour>
      <point x="205.5649230769231" y="259.75384615384615" type="qcurve" smooth="yes"/>
      <point x="205.5649230769231" y="1005.4141538461539" type="line"/>
      <point x="205.5649230769231" y="1019.8313846153846" type="line"/>
      <point x="205.5649230769231" y="1312.3076923076922" type="line"/>
      <point x="283.6178461538461" y="1312.3076923076922" type="line"/>
      <point x="283.6178461538461" y="259.1384615384615" type="line" smooth="yes"/>
      <point x="283.6178461538461" y="143.5673846153846"/>
      <point x="353.17046153846155" y="44.62584615384615"/>
      <point x="426.108923076923" y="44.62584615384615" type="qcurve" smooth="yes"/>
      <point x="453.05476923076924" y="44.62584615384615"/>
      <point x="502.90953846153843" y="55.11015384615384"/>
      <point x="527.4978461538461" y="64.92553846153845" type="qcurve"/>
      <point x="527.4978461538461" y="-7.591384615384616" type="line"/>
      <point x="506.8270953955324" y="-16.224538721531733"/>
      <point x="444.9208892025406" y="-29.692307692307693"/>
      <point x="407.3027692307692" y="-29.692307692307693" type="qcurve" smooth="yes"/>
      <point x="313.86093927125506" y="-29.692307692307693"/>
      <point x="205.5649230769231" y="109.41538461538461"/>
    </contour>
  </outline>
</glyph>
<glyph name="u" format="2">
  <advance width="990"/>
  <unicode hex="0075"/>
  <anchor x="492.6461538461538" y="1047.753846153846" name="top"/>
  <outline>
    <contour>
      <point x="137.53846153846152" y="315.13046153846153" type="qcurve" smooth="yes"/>
      <point x="137.53846153846152" y="1047.753846153846" type="line"/>
      <point x="215.5913846153846" y="1047.753846153846" type="line"/>
      <point x="215.5913846153846" y="313.31507692307696" type="line" smooth="yes"/>
      <point x="215.5913846153846" y="174.22092307692307"/>
      <point x="344.3846153846154" y="53.48553846153847"/>
      <point x="462.8818461538461" y="53.48553846153847" type="qcurve" smooth="yes"/>
      <point x="563.8178461538461" y="53.48553846153847"/>
      <point x="715.4347692307692" y="159.95076923076925"/>
      <point x="760.5655384615385" y="242.46215384615383" type="qcurve"/>
      <point x="760.5655384615385" y="1047.753846153846" type="line"/>
      <point x="838.4516923076923" y="1047.753846153846" type="line"/>
      <point x="838.4516923076923" y="0.0" type="line"/>
      <point x="768.433846153846" y="0.0" type="line"/>
      <point x="766.3606153846154" y="147.97046153846154" type="line"/>
      <point x="764.5975384615385" y="147.97046153846154" type="line"/>
      <point x="710.1153846153846" y="70.16799999999999"/>
      <point x="545.1215384615384" y="-20.0"/>
      <point x="440.80707692307686" y="-20.0" type="qcurve" smooth="yes"/>
      <point x="301.4436923076923" y="-20.0"/>
      <point x="137.53846153846152" y="134.47876923076922"/>
    </contour>
  </outline>
</glyph>
<glyph name="v" format="2">
  <advance width="888"/>
  <unicode hex="0076"/>
  <outline>
    <contour>
      <point x="3.137846153846154" y="1047.753846153846" type="line"/>
      <point x="85.60430769230769" y="1047.753846153846" type="line"/>
      <point x="407.94030769230767" y="203.35323076923078" type="line" smooth="yes"/>
      <point x="424.4787692307692" y="160.52246153846156"/>
      <point x="440.6843076923077" y="105.84553846153847"/>
      <point x="442.15384615384613" y="88.12246153846152" type="qcurve"/>
      <point x="447.0615384615385" y="88.12246153846152" type="line"/>
      <point x="446.5926153846154" y="101.96861538461536"/>
      <point x="466.675076923077" y="165.39938461538463"/>
      <point x="481.27507692307694" y="204.32246153846154" type="qcurve" smooth="yes"/>
      <point x="802.5673846153846" y="1047.753846153846" type="line"/>
      <point x="885.1083076923078" y="1047.753846153846" type="line"/>
      <point x="479.1972307692307" y="0.0" type="line"/>
      <point x="409.63015384615386" y="0.0" type="line"/>
    </contour>
  </outline>
</glyph>
<glyph name="w" format="2">
  <advance width="1436"/>
  <unicode hex="0077"/>
  <outline>
    <contour>
      <point x="29.04923076923077" y="1047.753846153846" type="line"/>
      <point x="111.75630769230769" y="1047.753846153846" type="line"/>
      <point x="334.57661538461537" y="243.8941538461538" type="line" smooth="yes"/>
      <point x="345.36123076923076" y="204.75569230769233"/>
      <point x="365.3609230769231" y="126.52184615384616"/>
      <point x="372.7778461538461" y="87.59876923076922" type="qcurve"/>
      <point x="378.6855384615384" y="87.59876923076922" type="line"/>
      <point x="386.2575384615384" y="126.52184615384616"/>
      <point x="411.1821538461538" y="204.72492307692306"/>
      <point x="423.90523076923074" y="243.8941538461538" type="qcurve" smooth="yes"/>
      <point x="684.1224615384615" y="1047.753846153846" type="line"/>
      <point x="755.8055384615385" y="1047.753846153846" type="line"/>
      <point x="1018.0227692307692" y="243.8326153846154" type="line" smooth="yes"/>
      <point x="1030.715076923077" y="204.78646153846154"/>
      <point x="1057.085846153846" y="126.4910769230769"/>
      <point x="1064.6270769230766" y="87.66030769230768" type="qcurve"/>
      <point x="1070.5963076923076" y="87.66030769230768" type="line"/>
      <point x="1077.9824615384616" y="126.4910769230769"/>
      <point x="1094.0855384615386" y="204.39876923076926"/>
      <point x="1104.8975384615385" y="243.4449230769231" type="qcurve" smooth="yes"/>
      <point x="1328.3846153846152" y="1047.753846153846" type="line"/>
      <point x="1406.924923076923" y="1047.753846153846" type="line"/>
      <point x="1105.7255384615385" y="0.0" type="line"/>
      <point x="1025.8796923076923" y="0.0" type="line"/>
      <point x="764.2184615384615" y="797.4873846153846" type="line" smooth="yes"/>
      <point x="751.1283076923078" y="837.0873846153846"/>
      <point x="730.2356923076923" y="916.1335384615385"/>
      <point x="722.496" y="955.7643076923077" type="qcurve"/>
      <point x="716.5883076923077" y="955.7643076923077" type="line"/>
      <point x="708.8486153846155" y="916.1027692307692"/>
      <point x="687.956" y="837.0873846153846"/>
      <point x="674.8658461538461" y="797.4873846153846" type="qcurve" smooth="yes"/>
      <point x="410.1252307692307" y="0.0" type="line"/>
      <point x="330.60123076923077" y="0.0" type="line"/>
    </contour>
  </outline>
</glyph>
<glyph name="x" format="2">
  <advance width="907"/>
  <unicode hex="0078"/>
  <outline>
    <contour>
      <point x="23.387076923076922" y="0.0" type="line"/>
      <point x="423.06338461538456" y="556.5926153846153" type="line"/>
      <point x="430.4018461538461" y="556.8326153846153" type="line"/>
      <point x="769.0603076923077" y="1047.753846153846" type="line"/>
      <point x="862.3550769230769" y="1047.753846153846" type="line"/>
      <point x="481.48923076923074" y="505.4381538461538" type="line"/>
      <point x="474.0307692307692" y="505.19815384615384" type="line"/>
      <point x="116.83692307692307" y="0.0" type="line"/>
    </contour>
    <contour>
      <point x="43.37292307692308" y="1047.753846153846" type="line"/>
      <point x="139.88553846153843" y="1047.753846153846" type="line"/>
      <point x="479.55569230769237" y="560.4018461538462" type="line"/>
      <point x="482.85230769230765" y="561.0018461538461" type="line"/>
      <point x="884.8763076923076" y="0.0" type="line"/>
      <point x="788.3636923076923" y="0.0" type="line"/>
      <point x="428.90584615384614" y="505.228923076923" type="line"/>
      <point x="425.5372307692308" y="505.46892307692303" type="line"/>
    </contour>
  </outline>
</glyph>
<glyph name="y" format="2">
  <advance width="989"/>
  <unicode hex="0079"/>
  <anchor x="564.4923076923077" y="1047.753846153846" name="top"/>
  <outline>
    <contour>
      <point x="132.51538461538462" y="-416.0615384615385" type="qcurve"/>
      <point x="132.51538461538462" y="-341.96861538461536" type="line"/>
      <point x="158.55384615384614" y="-349.8763076923077"/>
      <point x="222.36923076923074" y="-361.68184615384615"/>
      <point x="249.82184615384614" y="-361.68184615384615" type="qcurve" smooth="yes"/>
      <point x="327.1921799709724" y="-361.68184615384615"/>
      <point x="410.72861538461535" y="-247.08061538461536"/>
      <point x="503.4793846153846" y="1.710153846153846" type="qcurve" smooth="yes"/>
      <point x="503.8778461538462" y="2.2855384615384606" type="line"/>
      <point x="99.09538461538462" y="1047.753846153846" type="line"/>
      <point x="183.5236923076923" y="1047.753846153846" type="line"/>
      <point x="504.27384615384614" y="202.9950769230769" type="line" smooth="yes"/>
      <point x="518.9403076923077" y="164.24123076923078"/>
      <point x="529.940923076923" y="129.0996923076923"/>
      <point x="539.4978461538461" y="89.00738461538461" type="qcurve"/>
      <point x="545.0338461538462" y="89.00738461538461" type="line"/>
      <point x="554.3932307692309" y="129.0073846153846"/>
      <point x="565.064" y="164.24123076923075"/>
      <point x="577.0947692307692" y="195.27200000000002" type="qcurve" smooth="yes"/>
      <point x="898.9353846153846" y="1047.753846153846" type="line"/>
      <point x="979.5483076923077" y="1047.753846153846" type="line"/>
      <point x="547.4769230769231" y="-79.27692307692308" type="line" smooth="yes"/>
      <point x="472.3772307692308" y="-275.5895384615385"/>
      <point x="358.39460728744933" y="-436.0"/>
      <point x="252.1270769230769" y="-436.0" type="qcurve" smooth="yes"/>
      <point x="214.3323076923077" y="-436.0"/>
      <point x="158.9833846153846" y="-425.1126153846154"/>
    </contour>
  </outline>
</glyph>
<glyph name="z" format="2">
  <advance width="930"/>
  <unicode hex="007A"/>
  <outline>
    <contour>
      <point x="69.51384615384616" y="0.0" type="line"/>
      <point x="69.51384615384616" y="79.1243076923077" type="line"/>
      <point x="744.6560000000001" y="975.2369230769232" type="line"/>
      <point x="78.00984615384615" y="975.2369230769232" type="line"/>
      <point x="78.00984615384615" y="1047.753846153846" type="line"/>
      <point x="836.1907692307691" y="1047.753846153846" type="line"/>
      <point x="836.1907692307691" y="969.288" type="line"/>
      <point x="158.90523076923074" y="72.51692307692308" type="line"/>
      <point x="867.6633846153848" y="72.51692307692308" type="line"/>
      <point x="867.6633846153848" y="0.0" type="line"/>
    </contour>
  </outline>
</glyph>
<glyph name="braceleft" format="2">
  <advance width="604"/>
  <unicode hex="007B"/>
  <outline>
    <contour>
      <point x="583.8418461538462" y="-312.0" type="line"/>
      <point x="395.44676923076923" y="-312.0"/>
      <point x="184.17230769230773" y="-55.015384615384626"/>
      <point x="228.52984615384614" y="123.57846153846154" type="qcurve" smooth="yes"/>
      <point x="279.91200000000003" y="333.84615384615387" type="line" smooth="yes"/>
      <point x="310.34338461538454" y="458.0369230769231"/>
      <point x="174.83200000000002" y="539.3987692307693"/>
      <point x="59.30092307692308" y="539.3987692307693" type="qcurve"/>
      <point x="59.30092307692308" y="608.6012307692307" type="line"/>
      <point x="174.83200000000002" y="608.6012307692307"/>
      <point x="310.34338461538454" y="689.9630769230769"/>
      <point x="279.91200000000003" y="814.1538461538462" type="qcurve" smooth="yes"/>
      <point x="228.52984615384614" y="1024.4215384615386" type="line" smooth="yes"/>
      <point x="185.12430769230772" y="1198.3913846153846"/>
      <point x="390.8227692307692" y="1460.0"/>
      <point x="583.8418461538462" y="1460.0" type="qcurve"/>
      <point x="583.8418461538462" y="1388.9975384615384" type="line"/>
      <point x="416.27323076923074" y="1386.8215384615385"/>
      <point x="269.2212307692308" y="1178.4486153846153"/>
      <point x="308.1224615384616" y="1024.2676923076924" type="qcurve" smooth="yes"/>
      <point x="359.5046153846154" y="814.0" type="line" smooth="yes"/>
      <point x="380.4412307692308" y="729.5716923076924"/>
      <point x="303.42215384615383" y="599.2553846153846"/>
      <point x="205.1409230769231" y="574.0" type="qcurve"/>
      <point x="303.42215384615383" y="548.7446153846154"/>
      <point x="380.13107692307693" y="418.5833846153846"/>
      <point x="359.5046153846154" y="334.0" type="qcurve" smooth="yes"/>
      <point x="308.1224615384616" y="123.7323076923077" type="line" smooth="yes"/>
      <point x="268.13323076923075" y="-35.48061538461539"/>
      <point x="420.89723076923076" y="-238.41353846153845"/>
      <point x="583.8418461538462" y="-240.99753846153845" type="qcurve"/>
    </contour>
  </outline>
</glyph>
<glyph name="braceright" format="2">
  <advance width="604"/>
  <unicode hex="007D"/>
  <outline>
    <contour>
      <point x="16.340923076923083" y="-312.0" type="qcurve"/>
      <point x="16.340923076923083" y="-240.99753846153845" type="line"/>
      <point x="176.15753846153845" y="-240.99753846153845"/>
      <point x="332.59353846153846" y="-35.616615384615386"/>
      <point x="293.42030769230763" y="123.7323076923077" type="qcurve" smooth="yes"/>
      <point x="243.39815384615386" y="334.0" type="line" smooth="yes"/>
      <point x="223.1796923076923" y="418.71938461538457"/>
      <point x="301.2486153846154" y="549.1526153846154"/>
      <point x="403.20184615384613" y="574.0" type="qcurve"/>
      <point x="301.9286153846154" y="597.3513846153846"/>
      <point x="222.9076923076923" y="729.2806153846154"/>
      <point x="243.39815384615386" y="814.0" type="qcurve" smooth="yes"/>
      <point x="294.37230769230763" y="1024.2676923076924" type="line" smooth="yes"/>
      <point x="334.08953846153844" y="1183.6166153846154"/>
      <point x="178.87753846153848" y="1388.9975384615384"/>
      <point x="16.340923076923083" y="1388.9975384615384" type="qcurve"/>
      <point x="16.340923076923083" y="1460.0" type="line"/>
      <point x="205.688" y="1460.0"/>
      <point x="418.1864615384616" y="1203.9673846153846"/>
      <point x="373.96492307692307" y="1024.4215384615386" type="qcurve" smooth="yes"/>
      <point x="322.9907692307692" y="814.1538461538462" type="line" smooth="yes"/>
      <point x="292.8313846153846" y="689.827076923077"/>
      <point x="434.8707692307692" y="608.6012307692307"/>
      <point x="547.6818461538461" y="608.6012307692307" type="qcurve"/>
      <point x="547.6818461538461" y="539.3987692307693" type="line"/>
      <point x="434.8707692307692" y="539.3987692307693"/>
      <point x="293.23938461538455" y="458.17292307692304"/>
      <point x="322.9907692307692" y="333.84615384615387" type="qcurve" smooth="yes"/>
      <point x="373.0129230769231" y="123.57846153846154" type="line" smooth="yes"/>
      <point x="416.41846153846154" y="-55.15138461538462"/>
      <point x="200.52" y="-312.0"/>
    </contour>
  </outline>
</glyph>
<glyph name="asciitilde" format="2">
  <advance width="1215"/>
  <unicode hex="007E"/>
  <outline>
    <contour>
      <point x="171.7846153846154" y="600.2984615384615" type="qcurve"/>
      <point x="171.7846153846154" y="686.6326153846154" type="line"/>
      <point x="215.6923076923077" y="726.0633846153846"/>
      <point x="337.61538461538464" y="768.3095384615384"/>
      <point x="398.33846153846156" y="769.2787692307693" type="qcurve" smooth="yes"/>
      <point x="439.4923076923077" y="770.248"/>
      <point x="549.4923076923077" y="738.1249230769231"/>
      <point x="607.8" y="717.7556923076924" type="qcurve" smooth="yes"/>
      <point x="666.2923076923076" y="697.2941538461539"/>
      <point x="779.1384615384616" y="662.3556923076923"/>
      <point x="821.2923076923076" y="662.3556923076923" type="qcurve" smooth="yes"/>
      <point x="882.1384615384616" y="662.3556923076923"/>
      <point x="998.276923076923" y="713.3556923076923"/>
      <point x="1041.9692307692308" y="758.6326153846154" type="qcurve"/>
      <point x="1041.9692307692308" y="670.3292307692308" type="line"/>
      <point x="998.276923076923" y="631.96"/>
      <point x="883.1076923076923" y="587.8369230769231"/>
      <point x="822.2615384615384" y="587.8369230769231" type="qcurve" smooth="yes"/>
      <point x="785.9230769230769" y="587.8369230769231"/>
      <point x="692.2769230769231" y="613.1138461538462"/>
      <point x="641.7846153846154" y="630.5446153846153" type="qcurve" smooth="yes"/>
      <point x="575.9692307692308" y="653.7292307692308"/>
      <point x="445.3076923076923" y="695.7292307692308"/>
      <point x="398.33846153846156" y="695.7292307692308" type="qcurve" smooth="yes"/>
      <point x="337.61538461538464" y="695.7292307692308"/>
      <point x="215.84615384615384" y="645.76"/>
    </contour>
  </outline>
</glyph>
<glyph name="currency" format="2">
  <advance width="1158"/>
  <unicode hex="00A4"/>
  <guideline x="0" y="901.0" angle="0" identifier="bRYxxRaQQf"/>
  <guideline x="0" y="555.0" angle="0" identifier="917FhrihjR"/>
  <outline>
    <contour>
      <point x="227.07692307692307" y="712.0" type="qcurve"/>
      <point x="227.07692307692307" y="556.3384615384615"/>
      <point x="430.46153846153845" y="347.8"/>
      <point x="576.0" y="347.8" type="qcurve" smooth="yes"/>
      <point x="720.5384615384615" y="347.8"/>
      <point x="922.9230769230769" y="556.3384615384615"/>
      <point x="922.9230769230769" y="712.0" type="qcurve" smooth="yes"/>
      <point x="922.9230769230769" y="865.6615384615385"/>
      <point x="720.5384615384615" y="1074.2"/>
      <point x="576.0" y="1074.2" type="qcurve" smooth="yes"/>
      <point x="430.46153846153845" y="1074.2"/>
      <point x="227.07692307692307" y="865.6615384615385"/>
    </contour>
    <contour>
      <point x="132.27692307692308" y="718.0" type="qcurve"/>
      <point x="132.27692307692308" y="908.7692307692307"/>
      <point x="395.32307692307694" y="1168.7846153846153"/>
      <point x="575.0" y="1168.7846153846153" type="qcurve" smooth="yes"/>
      <point x="754.6769230769231" y="1168.7846153846153"/>
      <point x="1017.723076923077" y="908.7692307692307"/>
      <point x="1017.723076923077" y="718.0" type="qcurve" smooth="yes"/>
      <point x="1017.723076923077" y="527.2615384615384"/>
      <point x="754.6769230769231" y="265.2153846153846"/>
      <point x="575.0" y="265.2153846153846" type="qcurve" smooth="yes"/>
      <point x="395.32307692307694" y="265.2153846153846"/>
      <point x="132.27692307692308" y="527.2615384615384"/>
    </contour>
    <contour>
      <point x="1089.923076923077" y="1207.0153846153846" type="line"/>
      <point x="887.9230769230769" y="1001.0153846153846" type="line"/>
      <point x="825.0461538461539" y="1066.9538461538461" type="line"/>
      <point x="1027.0461538461539" y="1272.9538461538461" type="line"/>
    </contour>
    <contour>
      <point x="305.9230769230769" y="385.0153846153846" type="line"/>
      <point x="103.92307692307692" y="179.01538461538462" type="line"/>
      <point x="42.04615384615385" y="243.95384615384614" type="line"/>
      <point x="244.04615384615386" y="448.95384615384614" type="line"/>
    </contour>
    <contour>
      <point x="1053.0461538461539" y="186.01538461538462" type="line"/>
      <point x="851.0461538461539" y="392.0153846153846" type="line"/>
      <point x="914.9230769230769" y="456.95384615384614" type="line"/>
      <point x="1116.923076923077" y="251.95384615384614" type="line"/>
    </contour>
    <contour>
      <point x="261.04615384615386" y="1015.0153846153846" type="line"/>
      <point x="59.04615384615385" y="1221.0153846153846" type="line"/>
      <point x="120.92307692307692" y="1285.9538461538461" type="line"/>
      <point x="322.9230769230769" y="1079.9538461538461" type="line"/>
    </contour>
  </outline>
</glyph>
<glyph name="macron" format="2">
  <advance width="1024"/>
  <unicode hex="00AF"/>
  <anchor x="473.0" y="1577.0" name="mkmktop_acc"/>
  <outline>
    <contour>
      <point x="806.6153846153846" y="1371.8461538461538" type="line"/>
      <point x="806.6153846153846" y="1278.0" type="line"/>
      <point x="217.3846153846154" y="1278.0" type="line"/>
      <point x="217.3846153846154" y="1371.8461538461538" type="line"/>
    </contour>
  </outline>
</glyph>
<glyph name="degree" format="2">
  <advance width="765"/>
  <unicode hex="00B0"/>
  <outline>
    <contour>
      <point x="150.3846153846154" y="1238.323076923077" type="qcurve"/>
      <point x="150.3846153846154" y="1335.6"/>
      <point x="289.75384615384615" y="1477.0"/>
      <point x="385.03076923076924" y="1477.0" type="qcurve" smooth="yes"/>
      <point x="479.30769230769226" y="1477.0"/>
      <point x="615.6769230769231" y="1335.5990815154994"/>
      <point x="615.6769230769231" y="1238.323076923077" type="qcurve" smooth="yes"/>
      <point x="615.6769230769231" y="1140.0548794489093"/>
      <point x="479.30723306544206" y="1002.6461538461539"/>
      <point x="385.03076923076924" y="1002.6461538461539" type="qcurve" smooth="yes"/>
      <point x="289.7621125143513" y="1002.6461538461539"/>
      <point x="150.3846153846154" y="1140.0461538461539"/>
    </contour>
    <contour>
      <point x="235.6153846153846" y="1238.323076923077" type="qcurve"/>
      <point x="235.6153846153846" y="1175.5623421354765"/>
      <point x="324.254420206659" y="1090.9076923076923"/>
      <point x="385.03076923076924" y="1090.9076923076923" type="qcurve" smooth="yes"/>
      <point x="446.77634902411023" y="1090.9076923076923"/>
      <point x="530.4461538461538" y="1175.5623421354765"/>
      <point x="530.4461538461538" y="1238.323076923077" type="qcurve" smooth="yes"/>
      <point x="530.4461538461538" y="1302.0760045924226"/>
      <point x="446.77634902411023" y="1388.7384615384615"/>
      <point x="385.03076923076924" y="1388.7384615384615" type="qcurve" smooth="yes"/>
      <point x="324.254420206659" y="1388.7384615384615"/>
      <point x="235.6153846153846" y="1302.0760045924226"/>
    </contour>
  </outline>
</glyph>
<glyph name="twosuperior" format="2">
  <advance width="711"/>
  <unicode hex="00B2"/>
  <outline>
    <contour>
      <point x="104.6" y="697.0" type="line"/>
      <point x="104.6" y="782.5384615384615" type="line"/>
      <point x="350.0615384615384" y="1024.107692307692" type="line" smooth="yes"/>
      <point x="415.26153846153846" y="1087.9538461538461"/>
      <point x="513.1384615384616" y="1210.5230769230768"/>
      <point x="513.1384615384616" y="1276.1384615384616" type="qcurve" smooth="yes"/>
      <point x="513.1384615384616" y="1334.9384615384615"/>
      <point x="433.1384615384615" y="1410.8153846153846"/>
      <point x="344.8461538461538" y="1410.8153846153846" type="qcurve" smooth="yes"/>
      <point x="253.33846153846153" y="1410.8153846153846"/>
      <point x="162.93846153846155" y="1326.5846153846155"/>
      <point x="164.90769230769232" y="1227.6923076923078" type="qcurve"/>
      <point x="88.0923076923077" y="1227.6923076923078" type="line"/>
      <point x="86.12307692307694" y="1356.753846153846"/>
      <point x="222.16923076923075" y="1486.6615384615384"/>
      <point x="342.9076923076923" y="1486.6615384615384" type="qcurve" smooth="yes"/>
      <point x="465.2769230769231" y="1486.6615384615384"/>
      <point x="595.8000000000001" y="1371.8"/>
      <point x="595.8000000000001" y="1276.1384615384616" type="qcurve" smooth="yes"/>
      <point x="595.8000000000001" y="1177.4461538461537"/>
      <point x="458.15384615384613" y="1025.8923076923077"/>
      <point x="374.4769230769231" y="945.4769230769231" type="qcurve" smooth="yes"/>
      <point x="197.9230769230769" y="772.8461538461538" type="line"/>
      <point x="617.5692307692307" y="772.8461538461538" type="line"/>
      <point x="617.5692307692307" y="697.0" type="line"/>
    </contour>
  </outline>
</glyph>
<glyph name="threesuperior" format="2">
  <advance width="719"/>
  <unicode hex="00B3"/>
  <outline>
    <contour>
      <point x="98.24615384615385" y="929.6923076923076" type="qcurve"/>
      <point x="170.15384615384613" y="929.6923076923076" type="line"/>
      <point x="170.15384615384613" y="843.8307692307692"/>
      <point x="260.8" y="751.9076923076923"/>
      <point x="361.8769230769231" y="751.9076923076923" type="qcurve" smooth="yes"/>
      <point x="448.8461538461538" y="751.9076923076923"/>
      <point x="544.2461538461538" y="842.4"/>
      <point x="544.2461538461538" y="914.2923076923076" type="qcurve" smooth="yes"/>
      <point x="544.2461538461538" y="983.0"/>
      <point x="443.87692307692305" y="1070.676923076923"/>
      <point x="361.1230769230769" y="1070.676923076923" type="qcurve" smooth="yes"/>
      <point x="279.07692307692304" y="1070.676923076923" type="line"/>
      <point x="279.07692307692304" y="1140.7384615384617" type="line"/>
      <point x="361.1230769230769" y="1140.7384615384617" type="line" smooth="yes"/>
      <point x="442.7846153846154" y="1141.7076923076925"/>
      <point x="526.9692307692309" y="1209.0923076923077"/>
      <point x="526.9692307692309" y="1275.7384615384615" type="qcurve" smooth="yes"/>
      <point x="526.9692307692309" y="1344.646153846154"/>
      <point x="440.1846153846154" y="1414.6923076923076"/>
      <point x="361.03076923076924" y="1414.6923076923076" type="qcurve" smooth="yes"/>
      <point x="264.73846153846154" y="1414.6923076923076"/>
      <point x="181.6769230769231" y="1322.0153846153846"/>
      <point x="181.6769230769231" y="1246.3076923076922" type="qcurve"/>
      <point x="109.73846153846154" y="1246.3076923076922" type="line"/>
      <point x="109.73846153846154" y="1344.3999999999999"/>
      <point x="238.41538461538462" y="1486.6615384615384"/>
      <point x="362.0" y="1486.6615384615384" type="qcurve" smooth="yes"/>
      <point x="469.2307692307692" y="1486.6615384615384"/>
      <point x="599.8461538461538" y="1383.6307692307691"/>
      <point x="599.8461538461538" y="1287.3692307692309" type="qcurve" smooth="yes"/>
      <point x="599.8461538461538" y="1211.0307692307692"/>
      <point x="522.7846153846153" y="1127.353846153846"/>
      <point x="460.7846153846154" y="1111.5384615384614" type="qcurve"/>
      <point x="530.4769230769231" y="1095.8153846153846"/>
      <point x="619.0923076923076" y="983.2461538461538"/>
      <point x="619.0923076923076" y="916.2923076923076" type="qcurve" smooth="yes"/>
      <point x="619.0923076923076" y="812.2"/>
      <point x="477.0153846153846" y="685.7846153846154"/>
      <point x="357.0615384615385" y="685.7846153846154" type="qcurve" smooth="yes"/>
      <point x="231.5046153846154" y="685.7846153846154"/>
      <point x="98.24615384615385" y="815.8713846153846"/>
    </contour>
  </outline>
</glyph>
<glyph name="acute" format="2">
  <advance width="1024"/>
  <unicode hex="00B4"/>
  <anchor x="291.0" y="1197.0" name="mkmktop_acc"/>
  <outline>
    <contour>
      <point x="356.9384615384615" y="1235.723076923077" type="line"/>
      <point x="611.5076923076923" y="1539.4153846153845" type="line"/>
      <point x="697.6307692307693" y="1479.9692307692308" type="line"/>
      <point x="399.6" y="1204.0" type="line"/>
    </contour>
  </outline>
</glyph>
<glyph name="onesuperior" format="2">
  <advance width="601"/>
  <unicode hex="00B9"/>
  <outline>
    <contour>
      <point x="80.09230769230768" y="1284.0153846153846" type="line"/>
      <point x="80.09230769230768" y="1370.6153846153848" type="line"/>
      <point x="360.3538461538462" y="1485.6923076923076" type="line"/>
      <point x="385.0153846153846" y="1485.6923076923076" type="line"/>
      <point x="385.0153846153846" y="697.0" type="line"/>
      <point x="302.26153846153846" y="697.0" type="line"/>
      <point x="302.26153846153846" y="1369.0461538461539" type="line"/>
    </contour>
  </outline>
</glyph>
<glyph name="breve" format="2">
  <advance width="1024"/>
  <unicode hex="02D8"/>
  <anchor x="429.0" y="1606.0" name="mkmktop_acc"/>
  <outline>
    <contour>
      <point x="769.5076923076923" y="1500.5538461538463" type="qcurve"/>
      <point x="824.7692307692308" y="1470.7846153846153" type="line"/>
      <point x="790.7384615384616" y="1356.2769230769231"/>
      <point x="627.3692307692307" y="1197.0307692307692"/>
      <point x="512.0307692307692" y="1197.0307692307692" type="qcurve" smooth="yes"/>
      <point x="406.78461538461534" y="1197.0307692307692"/>
      <point x="238.3846153846154" y="1338.4"/>
      <point x="199.2923076923077" y="1471.7846153846153" type="qcurve"/>
      <point x="260.6461538461539" y="1500.5538461538463" type="line"/>
      <point x="298.5538461538461" y="1402.846153846154"/>
      <point x="427.24615384615385" y="1284.4615384615383"/>
      <point x="513.0307692307692" y="1284.4615384615383" type="qcurve" smooth="yes"/>
      <point x="597.0307692307692" y="1284.4615384615383"/>
      <point x="729.6307692307693" y="1399.8153846153848"/>
    </contour>
  </outline>
</glyph>
<glyph name="dotaccent" format="2">
  <advance width="1024"/>
  <unicode hex="02D9"/>
  <anchor x="250.0" y="1572.0" name="mkmktop_acc"/>
  <outline>
    <contour>
      <point x="424.95384615384614" y="1310.9538461538461" type="qcurve" smooth="yes"/>
      <point x="424.95384615384614" y="1342.3538461538462"/>
      <point x="472.5384615384615" y="1395.9384615384615"/>
      <point x="512.0" y="1395.9384615384615" type="qcurve" smooth="yes"/>
      <point x="550.4615384615385" y="1395.9384615384615"/>
      <point x="599.0461538461539" y="1342.3538461538462"/>
      <point x="599.0461538461539" y="1310.9538461538461" type="qcurve" smooth="yes"/>
      <point x="599.0461538461539" y="1278.5846153846155"/>
      <point x="550.4615384615385" y="1226.0"/>
      <point x="512.0" y="1226.0" type="qcurve" smooth="yes"/>
      <point x="472.5384615384615" y="1226.0"/>
      <point x="424.95384615384614" y="1278.5846153846155"/>
    </contour>
  </outline>
</glyph>
<glyph name="tilde" format="2">
  <advance width="1024"/>
  <unicode hex="02DC"/>
  <anchor x="475.0" y="1598.0" name="mkmktop_acc"/>
  <outline>
    <contour>
      <point x="185.07692307692307" y="1276.6153846153845" type="line"/>
      <point x="218.07692307692307" y="1339.6153846153845"/>
      <point x="327.0" y="1398.8461538461538"/>
      <point x="394.0" y="1398.8461538461538" type="qcurve" smooth="yes"/>
      <point x="435.0" y="1398.8461538461538"/>
      <point x="510.0" y="1373.8461538461538"/>
      <point x="547.0" y="1349.8461538461538" type="qcurve" smooth="yes"/>
      <point x="581.0" y="1327.8461538461538"/>
      <point x="659.0" y="1283.8461538461538"/>
      <point x="697.0" y="1283.8461538461538" type="qcurve" smooth="yes"/>
      <point x="737.0" y="1283.8461538461538"/>
      <point x="807.0" y="1336.8461538461538"/>
      <point x="830.0" y="1372.8461538461538" type="qcurve"/>
      <point x="881.9230769230769" y="1313.6153846153845" type="line"/>
      <point x="854.5846153846154" y="1253.2769230769231"/>
      <point x="756.4769230769231" y="1190.0"/>
      <point x="694.6307692307693" y="1190.0" type="qcurve" smooth="yes"/>
      <point x="634.0" y="1190.0"/>
      <point x="540.0" y="1233.0"/>
      <point x="509.0" y="1250.0" type="qcurve" smooth="yes"/>
      <point x="475.0" y="1269.0"/>
      <point x="407.0" y="1303.0"/>
      <point x="378.0" y="1303.0" type="qcurve" smooth="yes"/>
      <point x="331.0" y="1303.0"/>
      <point x="250.0" y="1233.9076923076923"/>
      <point x="232.0" y="1204.0" type="qcurve"/>
    </contour>
  </outline>
</glyph>
<glyph name="hungarumlaut" format="2">
  <advance width="1024"/>
  <unicode hex="02DD"/>
  <outline>
    <contour>
      <point x="577.6615384615384" y="1209.5538461538463" type="line"/>
      <point x="808.0" y="1530.6923076923078" type="line"/>
      <point x="905.4461538461538" y="1481.9076923076923" type="line"/>
      <point x="646.1846153846154" y="1179.7692307692307" type="line"/>
    </contour>
    <contour>
      <point x="317.75384615384615" y="1209.5538461538463" type="line"/>
      <point x="497.6923076923077" y="1530.6923076923078" type="line"/>
      <point x="596.1076923076923" y="1481.9076923076923" type="line"/>
      <point x="377.55384615384617" y="1179.7692307692307" type="line"/>
    </contour>
  </outline>
</glyph>
<glyph name="quoteright" format="2">
  <advance width="410"/>
  <unicode hex="2019"/>
  <outline>
    <contour>
      <point x="277.2923076923077" y="1458.0" type="line"/>
      <point x="277.2923076923077" y="1336.7846153846153" type="line" smooth="yes"/>
      <point x="277.2923076923077" y="1246.7846153846153"/>
      <point x="206.64615384615385" y="1070.8923076923077"/>
      <point x="129.4923076923077" y="1004.8307692307693" type="qcurve"/>
      <point x="66.13846153846154" y="1047.7846153846153" type="line"/>
      <point x="119.92307692307692" y="1107.0"/>
      <point x="171.8" y="1252.7846153846153"/>
      <point x="171.8" y="1333.7846153846153" type="qcurve" smooth="yes"/>
      <point x="171.8" y="1458.0" type="line"/>
    </contour>
  </outline>
</glyph>
<glyph name="fraction" format="2">
  <advance width="342"/>
  <unicode hex="2044"/>
  <guideline x="0" y="901.0" angle="0" identifier="tcCoNUQTdD"/>
  <guideline x="0" y="555.0" angle="0" identifier="0lx51aIE0d"/>
  <outline>
    <contour>
      <point x="657.803076923077" y="1418.2781538461536" type="line"/>
      <point x="-260.69723076923077" y="-6.980307692307694" type="line"/>
      <point x="-320.1390769230769" y="35.20861538461538" type="line"/>
      <point x="598.860923076923" y="1462.7520000000002" type="line"/>
    </contour>
  </outline>
</glyph>
<glyph name="foursuperior" format="2">
  <advance width="745"/>
  <unicode hex="2074"/>
  <outline>
    <contour>
      <point x="79.15384615384616" y="881.8461538461538" type="line"/>
      <point x="72.21538461538462" y="961.6923076923077" type="line"/>
      <point x="459.2307692307692" y="1495.8153846153846" type="line"/>
      <point x="550.7076923076924" y="1495.8153846153846" type="line"/>
      <point x="403.61538461538464" y="1298.8615384615384" type="line"/>
      <point x="148.12307692307692" y="950.0" type="line"/>
      <point x="694.7692307692308" y="950.0" type="line"/>
      <point x="694.7692307692308" y="881.8461538461538" type="line"/>
    </contour>
    <contour>
      <point x="566.4615384615385" y="1496.0" type="line"/>
      <point x="566.4615384615385" y="697.0" type="line"/>
      <point x="491.5538461538461" y="697.0" type="line"/>
      <point x="491.5538461538461" y="1496.0" type="line"/>
    </contour>
  </outline>
</glyph>
<glyph name="acutecomb.case" format="2">
  <advance width="1024"/>
  <outline>
    <contour>
      <point x="425.0769230769231" y="1620.4307692307693" type="line"/>
      <point x="652.6153846153846" y="1962.3384615384614" type="line"/>
      <point x="761.3076923076923" y="1904.0461538461539" type="line"/>
      <point x="488.10769230769233" y="1583.7230769230769" type="line"/>
    </contour>
  </outline>
</glyph>
<glyph name="brevecomb.case" format="2">
  <advance width="1024"/>
  <outline>
    <contour>
      <point x="801.0615384615385" y="1933.3538461538462" type="qcurve"/>
      <point x="876.6153846153846" y="1886.6153846153848" type="line"/>
      <point x="827.9230769230769" y="1777.923076923077"/>
      <point x="646.3076923076923" y="1640.0"/>
      <point x="512.0" y="1640.0" type="qcurve" smooth="yes"/>
      <point x="393.69230769230774" y="1640.0"/>
      <point x="196.3846153846154" y="1773.6153846153845"/>
      <point x="148.3846153846154" y="1887.6153846153848" type="qcurve"/>
      <point x="221.24615384615385" y="1943.0461538461539" type="line"/>
      <point x="268.12307692307695" y="1860.6615384615384"/>
      <point x="417.0" y="1745.0307692307692"/>
      <point x="511.03076923076924" y="1745.0307692307692" type="qcurve" smooth="yes"/>
      <point x="614.0" y="1745.0307692307692"/>
      <point x="747.4" y="1835.3076923076924"/>
    </contour>
  </outline>
</glyph>
<glyph name="brevecombstack.case" format="2">
  <advance width="1024"/>
  <outline>
    <contour>
      <point x="800.1692307692307" y="1902.2461538461537" type="qcurve"/>
      <point x="876.0307692307692" y="1855.6307692307694" type="line"/>
      <point x="827.4" y="1747.3076923076922"/>
      <point x="646.0923076923077" y="1610.0"/>
      <point x="512.0" y="1610.0" type="qcurve" smooth="yes"/>
      <point x="393.87692307692305" y="1610.0"/>
      <point x="196.90769230769232" y="1743.0615384615385"/>
      <point x="148.96923076923076" y="1856.6307692307694" type="qcurve"/>
      <point x="222.13846153846154" y="1911.9384615384615" type="line"/>
      <point x="268.89230769230767" y="1829.8307692307692"/>
      <point x="417.3076923076923" y="1714.7230769230769"/>
      <point x="511.03076923076924" y="1714.7230769230769" type="qcurve" smooth="yes"/>
      <point x="613.6923076923076" y="1714.7230769230769"/>
      <point x="746.6307692307693" y="1804.5076923076922"/>
    </contour>
  </outline>
</glyph>
<glyph name="cedillacomb.case" format="2">
  <advance width="1024"/>
  <outline>
    <contour>
      <point x="439.6923076923077" y="41.69230769230769" type="line"/>
      <point x="530.2307692307692" y="41.69230769230769" type="line"/>
      <point x="502.2307692307692" y="-74.58461538461538" type="line"/>
      <point x="550.2153846153846" y="-87.61538461538461"/>
      <point x="685.8461538461539" y="-169.9230769230769"/>
      <point x="685.8461538461539" y="-246.9230769230769" type="qcurve" smooth="yes"/>
      <point x="685.8461538461539" y="-340.2307692307692"/>
      <point x="481.2307692307692" y="-474.95384615384614"/>
      <point x="318.0" y="-474.95384615384614" type="qcurve"/>
      <point x="311.0" y="-386.44615384615383" type="line"/>
      <point x="442.26153846153846" y="-383.5692307692307"/>
      <point x="566.2307692307692" y="-314.5230769230769"/>
      <point x="571.0769230769231" y="-248.92307692307693" type="qcurve" smooth="yes"/>
      <point x="574.9538461538461" y="-199.92307692307693"/>
      <point x="474.9384615384616" y="-155.16923076923078"/>
      <point x="400.63076923076926" y="-148.16923076923078" type="qcurve"/>
    </contour>
  </outline>
</glyph>
<glyph name="dollar.rvrn" format="2">
  <advance width="985"/>
  <outline>
    <contour>
      <point x="69.9076923076923" y="411.18461538461537" type="qcurve" smooth="yes"/>
      <point x="69.9076923076923" y="423.18461538461537" type="line"/>
      <point x="146.65046153846154" y="423.18461538461537" type="line"/>
      <point x="146.65046153846154" y="411.18461538461537" type="line" smooth="yes"/>
      <point x="146.65046153846154" y="245.4363076923077"/>
      <point x="339.2830769230769" y="74.33476923076924"/>
      <point x="511.70215384615386" y="74.33476923076924" type="qcurve" smooth="yes"/>
      <point x="681.4898461538461" y="74.33476923076924"/>
      <point x="867.1353846153846" y="239.96123076923075"/>
      <point x="867.1353846153846" y="371.288" type="qcurve" smooth="yes"/>
      <point x="867.1353846153846" y="488.26400000000007"/>
      <point x="730.5870769230769" y="637.2843076923077"/>
      <point x="505.9372307692307" y="705.0824615384615" type="qcurve" smooth="yes"/>
      <point x="284.0775384615385" y="772.5163076923076"/>
      <point x="100.01353846153846" y="948.5335384615385"/>
      <point x="100.01353846153846" y="1098.9273846153844" type="qcurve" smooth="yes"/>
      <point x="100.01353846153846" y="1254.145846153846"/>
      <point x="308.4307692307693" y="1456.0"/>
      <point x="501.29415384615385" y="1456.0" type="qcurve" smooth="yes"/>
      <point x="689.732923076923" y="1456.0"/>
      <point x="914.2467692307694" y="1222.4732307692307"/>
      <point x="914.2467692307694" y="1050.8153846153846" type="qcurve" smooth="yes"/>
      <point x="914.2467692307694" y="1038.8153846153846" type="line"/>
      <point x="836.5347692307691" y="1038.8153846153846" type="line"/>
      <point x="836.5347692307691" y="1050.8153846153846" type="line" smooth="yes"/>
      <point x="836.5347692307691" y="1197.3224615384615"/>
      <point x="666.8233846153846" y="1381.665230769231"/>
      <point x="501.29415384615385" y="1381.665230769231" type="qcurve" smooth="yes"/>
      <point x="335.1827692307692" y="1381.665230769231"/>
      <point x="176.89230769230767" y="1230.2978461538462"/>
      <point x="176.89230769230767" y="1099.0196923076921" type="qcurve" smooth="yes"/>
      <point x="176.89230769230767" y="989.5692307692308"/>
      <point x="330.8233846153846" y="845.3513846153846"/>
      <point x="555.0123076923077" y="777.2375384615385" type="qcurve" smooth="yes"/>
      <point x="774.2455384615384" y="710.9218461538461"/>
      <point x="944.0141538461539" y="528.1944615384616"/>
      <point x="944.0141538461539" y="371.38030769230767" type="qcurve" smooth="yes"/>
      <point x="944.0141538461539" y="206.25415384615386"/>
      <point x="711.9827692307693" y="0.0"/>
      <point x="511.70215384615386" y="0.0" type="qcurve" smooth="yes"/>
      <point x="312.08861538461537" y="0.0"/>
      <point x="69.9076923076923" y="218.95261538461537"/>
    </contour>
    <contour>
      <point x="473.13476923076917" y="-150.0" type="line"/>
      <point x="473.13476923076917" y="59.292307692307695" type="line"/>
      <point x="539.7255384615385" y="59.292307692307695" type="line"/>
      <point x="539.7255384615385" y="41.78461538461538" type="line"/>
      <point x="540.984" y="32.03076923076923" type="line"/>
      <point x="540.984" y="-150.0" type="line"/>
    </contour>
    <contour>
      <point x="475.3624615384616" y="1396.7076923076922" type="line"/>
      <point x="475.3624615384616" y="1414.2153846153847" type="line"/>
      <point x="473.1347692307692" y="1423.9692307692308" type="line"/>
      <point x="473.1347692307692" y="1606.0" type="line"/>
      <point x="540.984" y="1606.0" type="line"/>
      <point x="540.984" y="1396.7076923076922" type="line"/>
    </contour>
  </outline>
</glyph>
<glyph name="gravecomb.case" format="2">
  <advance width="1024"/>
  <outline>
    <contour>
      <point x="501.9230769230769" y="1580.9692307692308" type="line"/>
      <point x="232.93846153846155" y="1903.4923076923076" type="line"/>
      <point x="341.4769230769231" y="1965.6307692307691" type="line"/>
      <point x="572.2461538461538" y="1625.923076923077" type="line"/>
    </contour>
  </outline>
</glyph>
<glyph name="gravecombstack.case" format="2">
  <advance width="1024"/>
  <outline>
    <contour>
      <point x="640.0" y="1570.0" type="line"/>
      <point x="257.0" y="1756.0" type="line"/>
      <point x="329.10769230769233" y="1875.3846153846155" type="line"/>
      <point x="678.2615384615384" y="1631.7230769230769" type="line"/>
    </contour>
  </outline>
</glyph>
<glyph name="hookabovecombstack.case" format="2">
  <advance width="1024"/>
  <outline>
    <contour>
      <point x="369.6923076923077" y="1566.6" type="line"/>
      <point x="369.6923076923077" y="1601.9692307692308" type="line" smooth="yes"/>
      <point x="369.6923076923077" y="1647.9384615384615"/>
      <point x="425.5692307692308" y="1693.4258461538464"/>
      <point x="497.4153846153846" y="1709.9076923076923" type="qcurve" smooth="yes"/>
      <point x="548.398153846154" y="1721.753846153846"/>
      <point x="585.0461538461539" y="1749.753846153846"/>
      <point x="585.0461538461539" y="1784.7846153846153" type="qcurve" smooth="yes"/>
      <point x="585.0461538461539" y="1822.3723076923077"/>
      <point x="533.3538461538461" y="1856.2615384615385"/>
      <point x="489.2" y="1856.2615384615385" type="qcurve" smooth="yes"/>
      <point x="429.32307692307694" y="1856.2615384615385"/>
      <point x="328.38461538461536" y="1825.323076923077"/>
      <point x="305.81538461538463" y="1813.4769230769232" type="qcurve"/>
      <point x="256.84615384615387" y="1901.4615384615386" type="line"/>
      <point x="290.75384615384615" y="1924.2769230769231"/>
      <point x="413.18461538461537" y="1960.246153846154"/>
      <point x="488.15384615384613" y="1960.246153846154" type="qcurve" smooth="yes"/>
      <point x="584.4615384615385" y="1960.246153846154"/>
      <point x="693.4923076923077" y="1867.0615384615385"/>
      <point x="693.4923076923077" y="1790.8153846153846" type="qcurve" smooth="yes"/>
      <point x="693.4923076923077" y="1715.446153846154"/>
      <point x="580.1384615384616" y="1622.5076923076924"/>
      <point x="473.1384615384615" y="1611.5384615384617" type="qcurve"/>
      <point x="473.1384615384615" y="1566.6" type="line"/>
    </contour>
  </outline>
</glyph>
<glyph name="horizontalbarH" format="2">
  <advance width="1450"/>
  <outline>
    <contour>
      <point x="1432.769230769231" y="1028.9076923076923" type="line"/>
      <point x="1210.7692307692307" y="1026.9692307692308" type="line"/>
      <point x="1210.7692307692307" y="1160.0923076923077" type="line"/>
      <point x="1442.769230769231" y="1162.0307692307692" type="line"/>
    </contour>
    <contour>
      <point x="15.0" y="1026.9692307692308" type="line"/>
      <point x="6.0" y="1160.0923076923077" type="line"/>
      <point x="245.0" y="1160.0923076923077" type="line"/>
      <point x="245.0" y="1026.9692307692308" type="line"/>
    </contour>
    <contour>
      <point x="245.0" y="1036.6615384615386" type="line"/>
      <point x="245.0" y="1150.4" type="line"/>
      <point x="1210.7692307692307" y="1150.4" type="line"/>
      <point x="1210.7692307692307" y="1036.6615384615386" type="line"/>
    </contour>
  </outline>
</glyph>
<glyph name="horncomb.case" format="2">
  <advance width="1024"/>
  <outline>
    <contour>
      <point x="382.0" y="1524.6399999999999" type="line"/>
      <point x="455.0" y="1524.6399999999999" type="line" smooth="yes"/>
      <point x="518.0" y="1524.6399999999999"/>
      <point x="651.1538461538462" y="1555.6399999999999"/>
      <point x="651.1538461538462" y="1612.6399999999999" type="qcurve" smooth="yes"/>
      <point x="651.1538461538462" y="1653.6399999999999"/>
      <point x="640.1538461538461" y="1726.6399999999999"/>
      <point x="631.1538461538462" y="1762.6399999999999" type="qcurve"/>
      <point x="713.7815384615385" y="1762.6399999999999" type="line"/>
      <point x="728.8430769230769" y="1730.670769230769"/>
      <point x="757.996923076923" y="1642.963076923077"/>
      <point x="757.996923076923" y="1583.9630769230769" type="qcurve" smooth="yes"/>
      <point x="757.996923076923" y="1515.3476923076921"/>
      <point x="616.3076923076923" y="1439.1052307692307"/>
      <point x="530.0" y="1439.1052307692307" type="qcurve" smooth="yes"/>
      <point x="484.0" y="1439.1052307692307"/>
      <point x="408.0" y="1451.377230769231"/>
      <point x="382.0" y="1460.6492307692308" type="qcurve"/>
    </contour>
  </outline>
</glyph>
<glyph name="idotless" format="2">
  <advance width="398"/>
  <outline>
    <contour>
      <point x="155.95384615384614" y="0.0" type="line"/>
      <point x="155.95384615384614" y="1047.753846153846" type="line"/>
      <point x="241.864" y="1047.753846153846" type="line"/>
      <point x="241.864" y="0.0" type="line"/>
    </contour>
  </outline>
</glyph>
<glyph name="jdotless" format="2">
  <advance width="398"/>
  <outline>
    <contour>
      <point x="-113.25907692307692" y="-414.20061538461533" type="qcurve"/>
      <point x="-113.25907692307692" y="-335.67261538461537" type="line"/>
      <point x="-95.22707692307692" y="-341.04430769230765"/>
      <point x="-31.49815384615384" y="-354.3544615384615"/>
      <point x="-4.8436923076923" y="-354.3544615384615" type="qcurve" smooth="yes"/>
      <point x="71.48923076923077" y="-354.3544615384615"/>
      <point x="156.66153846153847" y="-250.39827692307696"/>
      <point x="156.66153846153847" y="-132.15384615384616" type="qcurve" smooth="yes"/>
      <point x="156.66153846153847" y="1047.753846153846" type="line"/>
      <point x="242.5716923076923" y="1047.753846153846" type="line"/>
      <point x="242.5716923076923" y="-93.6923076923077" type="line" smooth="yes"/>
      <point x="242.5716923076923" y="-271.5076923076923"/>
      <point x="124.13833198380567" y="-436.0"/>
      <point x="9.927384615384625" y="-436.0" type="qcurve" smooth="yes"/>
      <point x="-21.957363949483337" y="-436.0"/>
      <point x="-93.92442034485771" y="-421.1472749969117"/>
    </contour>
  </outline>
</glyph>
<glyph name="macroncomb.case" format="2">
  <advance width="1024"/>
  <outline>
    <contour>
      <point x="235.3846153846154" y="1674.0" type="line"/>
      <point x="235.3846153846154" y="1776.6923076923078" type="line"/>
      <point x="788.6153846153846" y="1776.6923076923078" type="line"/>
      <point x="788.6153846153846" y="1674.0" type="line"/>
    </contour>
  </outline>
</glyph>
<glyph name="ogonekcomb.case" format="2">
  <advance width="1024"/>
  <outline>
    <contour>
      <point x="245.23076923076923" y="-291.46153846153845" type="qcurve" smooth="yes"/>
      <point x="245.23076923076923" y="-202.46153846153848"/>
      <point x="352.8769230769231" y="-46.815384615384616"/>
      <point x="468.0" y="51.0" type="qcurve"/>
      <point x="522.2923076923078" y="11.63076923076923" type="line"/>
      <point x="416.26153846153846" y="-91.4"/>
      <point x="340.66153846153844" y="-197.06153846153848"/>
      <point x="340.66153846153844" y="-257.5692307692308" type="qcurve" smooth="yes"/>
      <point x="340.66153846153844" y="-324.9538461538462"/>
      <point x="421.9846153846154" y="-399.3384615384615"/>
      <point x="500.1538461538462" y="-399.3384615384615" type="qcurve" smooth="yes"/>
      <point x="571.3846153846154" y="-399.3384615384615"/>
      <point x="669.4615384615385" y="-353.3384615384615"/>
      <point x="731.4615384615385" y="-305.3692307692308" type="qcurve"/>
      <point x="766.1692307692307" y="-357.0" type="line"/>
      <point x="717.2923076923076" y="-408.30769230769226"/>
      <point x="578.123076923077" y="-473.73846153846154"/>
      <point x="478.0" y="-473.73846153846154" type="qcurve" smooth="yes"/>
      <point x="373.0" y="-473.73846153846154"/>
      <point x="245.23076923076923" y="-369.46153846153845"/>
    </contour>
  </outline>
</glyph>
<glyph name="ringcomb.case" format="2">
  <advance width="1024"/>
  <outline>
    <contour>
      <point x="286.5692307692308" y="1818.123076923077" type="qcurve" smooth="yes"/>
      <point x="286.5692307692308" y="1911.3384615384614"/>
      <point x="415.75384615384615" y="2039.3692307692309"/>
      <point x="512.0" y="2039.3692307692309" type="qcurve" smooth="yes"/>
      <point x="608.2461538461538" y="2039.3692307692309"/>
      <point x="737.4307692307692" y="1911.3384615384614"/>
      <point x="737.4307692307692" y="1818.123076923077" type="qcurve" smooth="yes"/>
      <point x="737.4307692307692" y="1724.9076923076923"/>
      <point x="608.2461538461538" y="1594.9384615384615"/>
      <point x="512.0" y="1594.9384615384615" type="qcurve"/>
      <point x="415.75384615384615" y="1594.9384615384615"/>
      <point x="286.5692307692308" y="1724.9076923076923"/>
    </contour>
    <contour>
      <point x="383.4923076923077" y="1818.123076923077" type="qcurve" smooth="yes"/>
      <point x="383.4923076923077" y="1761.3076923076924"/>
      <point x="454.18461538461537" y="1683.8"/>
      <point x="512.0" y="1683.8" type="qcurve" smooth="yes"/>
      <point x="572.8153846153846" y="1683.8"/>
      <point x="640.5076923076923" y="1757.3076923076924"/>
      <point x="640.5076923076923" y="1818.123076923077" type="qcurve" smooth="yes"/>
      <point x="640.5076923076923" y="1874.9384615384615"/>
      <point x="569.8153846153847" y="1950.5076923076924"/>
      <point x="512.0" y="1950.5076923076924" type="qcurve" smooth="yes"/>
      <point x="451.18461538461537" y="1950.5076923076924"/>
      <point x="383.4923076923077" y="1878.9384615384615"/>
    </contour>
  </outline>
</glyph>
<glyph name="zerosuperior" format="2">
  <advance width="644"/>
  <outline>
    <contour>
      <point x="71.56738461538461" y="1015.6615384615385" type="qcurve" smooth="yes"/>
      <point x="71.56738461538461" y="1121.5692307692307" type="line" smooth="yes"/>
      <point x="71.56738461538461" y="1281.1076923076923"/>
      <point x="194.22584615384616" y="1476.0"/>
      <point x="321.6" y="1476.0" type="qcurve" smooth="yes"/>
      <point x="450.07938461538464" y="1476.0"/>
      <point x="572.5581538461539" y="1281.3846153846152"/>
      <point x="572.5581538461539" y="1121.5692307692307" type="qcurve" smooth="yes"/>
      <point x="572.5581538461539" y="1015.6615384615385" type="line" smooth="yes"/>
      <point x="572.5581538461539" y="855.8461538461538"/>
      <point x="450.3870769230769" y="660.6153846153846"/>
      <point x="321.6923076923077" y="660.6153846153846" type="qcurve" smooth="yes"/>
      <point x="194.1027692307692" y="660.6153846153846"/>
      <point x="71.56738461538461" y="855.9076923076923"/>
    </contour>
    <contour>
      <point x="143.99076923076925" y="1015.5384615384615" type="line" smooth="yes"/>
      <point x="143.99076923076925" y="890.2332307692307"/>
      <point x="221.79753846153847" y="731.4812307692308"/>
      <point x="321.6923076923077" y="731.4812307692308" type="qcurve" smooth="yes"/>
      <point x="422.67938461538466" y="731.4812307692308"/>
      <point x="500.1347692307692" y="890.2332307692307"/>
      <point x="500.1347692307692" y="1015.5384615384615" type="qcurve" smooth="yes"/>
      <point x="500.1347692307692" y="1121.476923076923" type="line" smooth="yes"/>
      <point x="500.1347692307692" y="1247.1206153846153"/>
      <point x="422.27938461538463" y="1405.1341538461538"/>
      <point x="321.6" y="1405.1341538461538" type="qcurve" smooth="yes"/>
      <point x="221.88984615384615" y="1405.1341538461538"/>
      <point x="143.99076923076925" y="1246.8129230769227"/>
      <point x="143.99076923076925" y="1121.476923076923" type="qcurve" smooth="yes"/>
    </contour>
  </outline>
</glyph>
